<?xml version="1.0" encoding="utf-8"?>
<!-- Generator: Adobe Illustrator 25.4.1, SVG Export Plug-In . SVG Version: 6.00 Build 0)  -->
<svg version="1.1" id="Layer_1" xmlns="http://www.w3.org/2000/svg" xmlns:xlink="http://www.w3.org/1999/xlink" x="0px" y="0px"
	 viewBox="0 0 263.4 267.9" style="enable-background:new 0 0 263.4 267.9;" xml:space="preserve">
<style type="text/css">
	.st0{fill:#D9D9E2;}
</style>
<g>
	<g id="_x3C_Radial_Repeat_x3E__00000180359739468301070180000001763780578714374531_">
		<path class="st0" d="M130.6,220.6l3.9,0c0.2,0,0.4,0.2,0.4,0.5l1,17.3c0,0.3-0.2,0.6-0.4,0.6l-5.1,0.1c-0.3,0-0.5-0.3-0.5-0.6
			l0.2-17.3C130.2,220.8,130.4,220.6,130.6,220.6z"/>
	</g>
	<g id="_x3C_Radial_Repeat_x3E__00000131340634762782654900000015941459280177963454_">
		<path class="st0" d="M123.6,220.2l3.9,0.3c0.2,0,0.4,0.3,0.4,0.6l-0.4,17.3c0,0.3-0.2,0.6-0.5,0.6l-5.1-0.4
			c-0.3,0-0.4-0.3-0.4-0.6l1.6-17.2C123.1,220.4,123.3,220.2,123.6,220.2z"/>
	</g>
	<g id="_x3C_Radial_Repeat_x3E__00000164511245628041252590000002855018636856289440_">
		<path class="st0" d="M116.6,219.3l3.8,0.6c0.2,0,0.4,0.3,0.4,0.6l-1.8,17.2c0,0.3-0.3,0.6-0.5,0.5l-5-0.8c-0.2,0-0.4-0.3-0.4-0.6
			l3-17.1C116.1,219.4,116.3,219.2,116.6,219.3z"/>
	</g>
	<g id="_x3C_Radial_Repeat_x3E__00000008150390453053950960000010070900976278633870_">
		<path class="st0" d="M109.7,217.8l3.8,0.9c0.2,0.1,0.4,0.3,0.3,0.6l-3.2,17c-0.1,0.3-0.3,0.5-0.6,0.5l-4.9-1.2
			c-0.2-0.1-0.4-0.4-0.3-0.7l4.4-16.8C109.2,217.9,109.5,217.7,109.7,217.8z"/>
	</g>
	<g id="_x3C_Radial_Repeat_x3E__00000123416399559893077270000001075633182255676079_">
		<path class="st0" d="M102.9,215.7l3.7,1.2c0.2,0.1,0.3,0.4,0.3,0.6l-4.6,16.7c-0.1,0.3-0.4,0.5-0.6,0.4l-4.8-1.6
			c-0.2-0.1-0.4-0.4-0.2-0.7l5.7-16.4C102.4,215.8,102.7,215.6,102.9,215.7z"/>
	</g>
	<g id="_x3C_Radial_Repeat_x3E__00000010298781834479527560000017336061570924925086_">
		<path class="st0" d="M96.4,213.1l3.6,1.5c0.2,0.1,0.3,0.4,0.2,0.7l-5.9,16.3c-0.1,0.3-0.4,0.5-0.6,0.4l-4.7-1.9
			c-0.2-0.1-0.3-0.4-0.2-0.7l7-15.8C95.9,213.2,96.2,213,96.4,213.1z"/>
	</g>
	<g id="_x3C_Radial_Repeat_x3E__00000170279259771497154420000007864919155380143240_">
		<path class="st0" d="M90.1,210l3.4,1.8c0.2,0.1,0.3,0.4,0.2,0.7l-7.2,15.8c-0.1,0.3-0.4,0.4-0.7,0.3l-4.5-2.3
			c-0.2-0.1-0.3-0.4-0.1-0.7l8.3-15.2C89.6,210,89.8,209.9,90.1,210z"/>
	</g>
	<g id="_x3C_Radial_Repeat_x3E__00000168076160452121585140000009700084869376205245_">
		<path class="st0" d="M84,206.4l3.3,2c0.2,0.1,0.2,0.4,0.1,0.7l-8.4,15.1c-0.2,0.3-0.5,0.4-0.7,0.3l-4.3-2.7
			c-0.2-0.1-0.3-0.5-0.1-0.7l9.5-14.5C83.5,206.4,83.8,206.3,84,206.4z"/>
	</g>
	<g id="_x3C_Radial_Repeat_x3E__00000135651323133324428370000010225662165619861142_">
		<path class="st0" d="M78.2,202.3l3.1,2.3c0.2,0.1,0.2,0.4,0,0.7l-9.6,14.4c-0.2,0.3-0.5,0.4-0.7,0.2l-4.1-3
			c-0.2-0.1-0.2-0.5,0-0.7l10.6-13.7C77.7,202.3,78.1,202.2,78.2,202.3z"/>
	</g>
	<g id="_x3C_Radial_Repeat_x3E__00000068670250604479999960000002777480136185915782_">
		<path class="st0" d="M72.8,197.8l2.9,2.5c0.2,0.2,0.2,0.5,0,0.7L65,214.6c-0.2,0.2-0.5,0.3-0.7,0.1l-3.8-3.3
			c-0.2-0.2-0.2-0.5,0-0.7l11.7-12.8C72.4,197.7,72.7,197.6,72.8,197.8z"/>
	</g>
	<g id="_x3C_Radial_Repeat_x3E__00000162313704389778897740000010040273211691361184_">
		<path class="st0" d="M67.8,192.8l2.7,2.8c0.2,0.2,0.1,0.5-0.1,0.7L58.7,209c-0.2,0.2-0.6,0.3-0.7,0.1l-3.5-3.6
			c-0.2-0.2-0.1-0.5,0.1-0.7l12.7-11.8C67.3,192.7,67.7,192.7,67.8,192.8z"/>
	</g>
	<g id="_x3C_Radial_Repeat_x3E__00000013178971605349933660000016196651779009488036_">
		<path class="st0" d="M63.2,187.5l2.5,3c0.2,0.2,0.1,0.5-0.1,0.7l-12.8,11.7c-0.2,0.2-0.6,0.2-0.7,0l-3.2-3.9
			c-0.2-0.2-0.1-0.5,0.2-0.7l13.6-10.8C62.8,187.3,63.1,187.3,63.2,187.5z"/>
	</g>
	<g id="_x3C_Radial_Repeat_x3E__00000059992518469967407290000002664936694471778691_">
		<path class="st0" d="M59.1,181.8l2.2,3.2c0.1,0.2,0.1,0.5-0.2,0.7l-13.7,10.6c-0.3,0.2-0.6,0.2-0.7,0l-2.9-4.1
			c-0.1-0.2-0.1-0.5,0.2-0.7l14.4-9.6C58.6,181.6,58.9,181.6,59.1,181.8z"/>
	</g>
	<g id="_x3C_Radial_Repeat_x3E__00000171707022385170799820000014564007328515589031_">
		<path class="st0" d="M55.4,175.8l2,3.3c0.1,0.2,0,0.5-0.2,0.6l-14.5,9.5c-0.3,0.2-0.6,0.1-0.7-0.1l-2.6-4.4
			c-0.1-0.2,0-0.5,0.3-0.7l15.1-8.5C54.9,175.5,55.3,175.6,55.4,175.8z"/>
	</g>
	<g id="_x3C_Radial_Repeat_x3E__00000058551071247460268250000011110446932246634912_">
		<path class="st0" d="M52.2,169.5l1.7,3.5c0.1,0.2,0,0.5-0.3,0.6l-15.2,8.3c-0.3,0.2-0.6,0.1-0.7-0.1l-2.2-4.6
			c-0.1-0.2,0-0.5,0.3-0.7l15.8-7.2C51.8,169.2,52.1,169.3,52.2,169.5z"/>
	</g>
	<g id="_x3C_Radial_Repeat_x3E__00000178912704562460469430000002443376263670746255_">
		<path class="st0" d="M49.5,163l1.4,3.6c0.1,0.2-0.1,0.5-0.3,0.6l-15.8,7c-0.3,0.1-0.6,0-0.7-0.2l-1.8-4.7
			c-0.1-0.2,0.1-0.5,0.4-0.6l16.3-5.9C49.1,162.6,49.4,162.7,49.5,163z"/>
	</g>
	<g id="_x3C_Radial_Repeat_x3E__00000087386539716151839670000010686433006829538479_">
		<path class="st0" d="M47.4,156.2l1.1,3.7c0.1,0.2-0.1,0.5-0.4,0.6l-16.3,5.7c-0.3,0.1-0.6,0-0.7-0.3l-1.5-4.9
			c-0.1-0.2,0.1-0.5,0.4-0.6l16.7-4.6C47,155.9,47.3,156,47.4,156.2z"/>
	</g>
	<g id="_x3C_Radial_Repeat_x3E__00000134215723396724161910000013802704240592494218_">
		<path class="st0" d="M45.8,149.4l0.8,3.8c0,0.2-0.1,0.5-0.4,0.5l-16.8,4.4c-0.3,0.1-0.6-0.1-0.7-0.3l-1.1-5
			c-0.1-0.2,0.2-0.5,0.5-0.6l17-3.2C45.5,149,45.7,149.1,45.8,149.4z"/>
	</g>
	<g id="_x3C_Radial_Repeat_x3E__00000140727244015218720690000001413182735460146825_">
		<path class="st0" d="M44.7,142.4l0.5,3.8c0,0.2-0.2,0.5-0.5,0.5l-17.1,3c-0.3,0.1-0.6-0.1-0.6-0.4l-0.7-5c0-0.2,0.2-0.5,0.5-0.5
			l17.2-1.8C44.4,142,44.7,142.2,44.7,142.4z"/>
	</g>
	<g id="_x3C_Radial_Repeat_x3E__00000183240454762821230200000013231537537655549365_">
		<path class="st0" d="M44.3,135.4l0.2,3.9c0,0.2-0.2,0.4-0.5,0.5l-17.2,1.7c-0.3,0-0.6-0.2-0.6-0.4l-0.3-5.1c0-0.3,0.2-0.5,0.5-0.5
			l17.3-0.5C44,134.9,44.3,135.1,44.3,135.4z"/>
	</g>
	<g id="_x3C_Radial_Repeat_x3E__00000052074632348833000090000005838101207644736161_">
		<path class="st0" d="M44.4,128.3l-0.1,3.9c0,0.2-0.2,0.4-0.5,0.4l-17.3,0.3c-0.3,0-0.6-0.2-0.6-0.5l0.2-5.1c0-0.3,0.3-0.4,0.6-0.4
			l17.3,0.9C44.1,127.9,44.4,128.1,44.4,128.3z"/>
	</g>
	<g id="_x3C_Radial_Repeat_x3E__00000082350825011858872420000002614685333717824431_">
		<path class="st0" d="M45,121.3l-0.4,3.8c0,0.2-0.3,0.4-0.6,0.4l-17.3-1.1c-0.3,0-0.6-0.3-0.5-0.5l0.6-5c0-0.3,0.3-0.4,0.6-0.4
			l17.2,2.3C44.8,120.8,45.1,121.1,45,121.3z"/>
	</g>
	<g id="_x3C_Radial_Repeat_x3E__00000160901328068126640500000017719028482455453850_">
		<path class="st0" d="M46.3,114.3l-0.7,3.8c0,0.2-0.3,0.4-0.6,0.3L27.8,116c-0.3,0-0.5-0.3-0.5-0.5l1-5c0-0.2,0.3-0.4,0.6-0.3
			l16.9,3.7C46.1,113.9,46.3,114.1,46.3,114.3z"/>
	</g>
	<g id="_x3C_Radial_Repeat_x3E__00000054949939650517477850000016454861458346251694_">
		<path class="st0" d="M48,107.5l-1,3.7c-0.1,0.2-0.3,0.4-0.6,0.3l-16.9-3.9c-0.3-0.1-0.5-0.3-0.4-0.6l1.4-4.9
			c0.1-0.2,0.4-0.4,0.7-0.3l16.6,5.1C47.9,107,48.1,107.3,48,107.5z"/>
	</g>
	<g id="_x3C_Radial_Repeat_x3E__00000119096337174921385700000016951666277008479126_">
		<path class="st0" d="M50.4,100.9l-1.3,3.6c-0.1,0.2-0.4,0.3-0.6,0.2l-16.5-5.2c-0.3-0.1-0.5-0.4-0.4-0.6l1.7-4.8
			c0.1-0.2,0.4-0.3,0.7-0.2l16.1,6.4C50.3,100.4,50.5,100.6,50.4,100.9z"/>
	</g>
	<g id="_x3C_Radial_Repeat_x3E__00000111156463915732485700000011293541331363466126_">
		<path class="st0" d="M53.2,94.4l-1.6,3.5c-0.1,0.2-0.4,0.3-0.7,0.2l-16-6.5c-0.3-0.1-0.5-0.4-0.3-0.7l2.1-4.6
			c0.1-0.2,0.4-0.3,0.7-0.2l15.5,7.6C53.2,93.9,53.3,94.2,53.2,94.4z"/>
	</g>
	<g id="_x3C_Radial_Repeat_x3E__00000096781437539343165640000014789190732834753420_">
		<path class="st0" d="M56.6,88.2l-1.9,3.4c-0.1,0.2-0.4,0.3-0.7,0.1l-15.5-7.8c-0.3-0.1-0.4-0.5-0.3-0.7l2.5-4.4
			c0.1-0.2,0.4-0.3,0.7-0.1l14.9,8.9C56.6,87.7,56.7,88,56.6,88.2z"/>
	</g>
	<g id="_x3C_Radial_Repeat_x3E__00000122679220197243654650000006032117757266193306_">
		<path class="st0" d="M60.4,82.3l-2.2,3.2c-0.1,0.2-0.4,0.2-0.7,0.1l-14.8-9c-0.3-0.2-0.4-0.5-0.2-0.7l2.8-4.2
			c0.1-0.2,0.5-0.2,0.7-0.1l14.1,10C60.5,81.8,60.6,82.1,60.4,82.3z"/>
	</g>
	<g id="_x3C_Radial_Repeat_x3E__00000059989397783907550620000008649304975806577303_">
		<path class="st0" d="M64.7,76.7l-2.4,3c-0.1,0.2-0.4,0.2-0.7,0l-14-10.2c-0.3-0.2-0.3-0.5-0.2-0.7l3.2-4c0.2-0.2,0.5-0.2,0.7,0
			L64.6,76C64.8,76.2,64.9,76.5,64.7,76.7z"/>
	</g>
	<g id="_x3C_Radial_Repeat_x3E__00000013181247595392494680000004068213955917461919_">
		<path class="st0" d="M69.5,71.5l-2.7,2.8c-0.2,0.2-0.5,0.2-0.7,0L53,63c-0.2-0.2-0.3-0.5-0.1-0.7l3.5-3.7c0.2-0.2,0.5-0.2,0.7,0.1
			l12.3,12.2C69.6,71,69.7,71.3,69.5,71.5z"/>
	</g>
	<g id="_x3C_Radial_Repeat_x3E__00000083055417533718125150000016961196902497357190_">
		<path class="st0" d="M74.6,66.7l-2.9,2.6c-0.2,0.2-0.5,0.1-0.7-0.1L58.9,56.9c-0.2-0.2-0.3-0.6-0.1-0.7l3.8-3.4
			c0.2-0.2,0.5-0.1,0.7,0.1L74.6,66C74.8,66.2,74.8,66.5,74.6,66.7z"/>
	</g>
	<g id="_x3C_Radial_Repeat_x3E__00000049183124350113282340000016577564614227990684_">
		<path class="st0" d="M80.2,62.3l-3.1,2.3c-0.2,0.1-0.5,0.1-0.7-0.1L65.3,51.3c-0.2-0.2-0.2-0.6,0-0.7l4-3.1
			c0.2-0.2,0.5-0.1,0.7,0.2l10.2,14C80.4,61.9,80.4,62.2,80.2,62.3z"/>
	</g>
	<g id="_x3C_Radial_Repeat_x3E__00000096034191475449524440000002569467439147548824_">
		<path class="st0" d="M86,58.4l-3.2,2.1c-0.2,0.1-0.5,0-0.7-0.2L72.1,46.2c-0.2-0.3-0.2-0.6,0.1-0.7l4.3-2.8c0.2-0.1,0.5,0,0.7,0.2
			l9.1,14.8C86.3,58,86.2,58.3,86,58.4z"/>
	</g>
	<g id="_x3C_Radial_Repeat_x3E__00000144329333616866347790000018417669217576030110_">
		<path class="st0" d="M92.2,54.9l-3.4,1.8c-0.2,0.1-0.5,0-0.6-0.2l-8.9-14.9c-0.2-0.3-0.1-0.6,0.1-0.7l4.5-2.4
			c0.2-0.1,0.5,0,0.7,0.3l7.8,15.5C92.5,54.5,92.4,54.8,92.2,54.9z"/>
	</g>
	<g id="_x3C_Radial_Repeat_x3E__00000144337776416671631440000010680158461252078011_">
		<path class="st0" d="M98.6,52l-3.5,1.5c-0.2,0.1-0.5,0-0.6-0.3l-7.7-15.5c-0.1-0.3-0.1-0.6,0.2-0.7l4.6-2c0.2-0.1,0.5,0.1,0.6,0.3
			l6.6,16C98.9,51.6,98.8,51.9,98.6,52z"/>
	</g>
	<g id="_x3C_Radial_Repeat_x3E__00000101066209570864115740000006676734119568448699_">
		<path class="st0" d="M105.2,49.6l-3.7,1.3c-0.2,0.1-0.5-0.1-0.6-0.3l-6.4-16.1c-0.1-0.3,0-0.6,0.2-0.7l4.8-1.7
			c0.2-0.1,0.5,0.1,0.6,0.4l5.3,16.5C105.6,49.2,105.5,49.5,105.2,49.6z"/>
	</g>
	<g id="_x3C_Radial_Repeat_x3E__00000150069167458411832460000013177139704148315026_">
		<path class="st0" d="M112,47.7l-3.7,1c-0.2,0.1-0.5-0.1-0.6-0.4l-5.1-16.6c-0.1-0.3,0-0.6,0.3-0.7l4.9-1.3
			c0.2-0.1,0.5,0.1,0.6,0.4l3.9,16.9C112.4,47.4,112.3,47.7,112,47.7z"/>
	</g>
	<g id="_x3C_Radial_Repeat_x3E__00000034075117093806604340000004627451895664894654_">
		<path class="st0" d="M119,46.4l-3.8,0.6c-0.2,0-0.5-0.2-0.5-0.4l-3.7-16.9c-0.1-0.3,0.1-0.6,0.3-0.7l5-0.9c0.2,0,0.5,0.2,0.5,0.5
			l2.5,17.1C119.3,46.1,119.2,46.4,119,46.4z"/>
	</g>
	<g id="_x3C_Radial_Repeat_x3E__00000174564414093318478610000014601233902502769796_">
		<path class="st0" d="M126,45.7l-3.8,0.3c-0.2,0-0.4-0.2-0.5-0.5l-2.4-17.2c0-0.3,0.1-0.6,0.4-0.6l5-0.5c0.3,0,0.5,0.2,0.5,0.5
			l1.2,17.3C126.4,45.4,126.2,45.6,126,45.7z"/>
	</g>
	<g id="_x3C_Radial_Repeat_x3E__00000066484766639862827850000010143191933105998989_">
		<path class="st0" d="M133,45.5l-3.9,0c-0.2,0-0.4-0.2-0.4-0.5l-1-17.3c0-0.3,0.2-0.6,0.4-0.6l5.1-0.1c0.3,0,0.5,0.3,0.5,0.6
			l-0.2,17.3C133.5,45.2,133.3,45.5,133,45.5z"/>
	</g>
	<g id="_x3C_Radial_Repeat_x3E__00000142171208188213625580000015719564135631942554_">
		<path class="st0" d="M140.1,45.9l-3.9-0.3c-0.2,0-0.4-0.3-0.4-0.6l0.4-17.3c0-0.3,0.2-0.6,0.5-0.6l5.1,0.4c0.3,0,0.4,0.3,0.4,0.6
			l-1.6,17.2C140.5,45.7,140.3,45.9,140.1,45.9z"/>
	</g>
	<g id="_x3C_Radial_Repeat_x3E__00000080915167842348861100000012905921475843545279_">
		<path class="st0" d="M147,46.8l-3.8-0.6c-0.2,0-0.4-0.3-0.4-0.6l1.8-17.2c0-0.3,0.3-0.6,0.5-0.5l5,0.8c0.2,0,0.4,0.3,0.4,0.6
			l-3,17.1C147.5,46.6,147.3,46.8,147,46.8z"/>
	</g>
	<g id="_x3C_Radial_Repeat_x3E__00000090260665930707214340000007936857322143515790_">
		<path class="st0" d="M153.9,48.3l-3.8-0.9c-0.2-0.1-0.4-0.3-0.3-0.6l3.2-17c0.1-0.3,0.3-0.5,0.6-0.5l4.9,1.2
			c0.2,0.1,0.4,0.4,0.3,0.7l-4.4,16.8C154.4,48.2,154.2,48.4,153.9,48.3z"/>
	</g>
	<g id="_x3C_Radial_Repeat_x3E__00000025401060303813855590000008521812897571249820_">
		<path class="st0" d="M160.7,50.4l-3.7-1.2c-0.2-0.1-0.3-0.4-0.3-0.6l4.6-16.7c0.1-0.3,0.4-0.5,0.6-0.4l4.8,1.6
			c0.2,0.1,0.4,0.4,0.2,0.7L161.3,50C161.2,50.3,160.9,50.4,160.7,50.4z"/>
	</g>
	<g id="_x3C_Radial_Repeat_x3E__00000109750375446548762890000004974601565087347391_">
		<path class="st0" d="M167.2,53l-3.6-1.5c-0.2-0.1-0.3-0.4-0.2-0.7l5.9-16.3c0.1-0.3,0.4-0.5,0.6-0.4l4.7,1.9
			c0.2,0.1,0.3,0.4,0.2,0.7l-7,15.8C167.7,52.9,167.5,53.1,167.2,53z"/>
	</g>
	<g id="_x3C_Radial_Repeat_x3E__00000086679573269948524460000006855778711626274725_">
		<path class="st0" d="M173.6,56.1l-3.4-1.8c-0.2-0.1-0.3-0.4-0.2-0.7l7.2-15.8c0.1-0.3,0.4-0.4,0.7-0.3l4.5,2.3
			c0.2,0.1,0.3,0.4,0.1,0.7l-8.3,15.2C174.1,56.1,173.8,56.2,173.6,56.1z"/>
	</g>
	<g id="_x3C_Radial_Repeat_x3E__00000071554166673265025770000006512207267314117027_">
		<path class="st0" d="M179.6,59.7l-3.3-2c-0.2-0.1-0.2-0.4-0.1-0.7l8.4-15.1c0.2-0.3,0.5-0.4,0.7-0.3l4.3,2.7
			c0.2,0.1,0.3,0.5,0.1,0.7l-9.5,14.5C180.1,59.7,179.8,59.8,179.6,59.7z"/>
	</g>
	<g id="_x3C_Radial_Repeat_x3E__00000029014558636015888040000010751544937562877852_">
		<path class="st0" d="M185.4,63.8l-3.1-2.3c-0.2-0.1-0.2-0.4,0-0.7l9.6-14.4c0.2-0.3,0.5-0.4,0.7-0.2l4.1,3c0.2,0.1,0.2,0.5,0,0.7
			l-10.6,13.7C185.9,63.8,185.6,63.9,185.4,63.8z"/>
	</g>
	<g id="_x3C_Radial_Repeat_x3E__00000090994942782590431380000017717097049348709311_">
		<path class="st0" d="M190.8,68.3l-2.9-2.5c-0.2-0.2-0.2-0.5,0-0.7l10.8-13.6c0.2-0.2,0.5-0.3,0.7-0.1l3.8,3.3
			c0.2,0.2,0.2,0.5,0,0.7l-11.7,12.8C191.3,68.4,191,68.5,190.8,68.3z"/>
	</g>
	<g id="_x3C_Radial_Repeat_x3E__00000012430367920639636620000009852005848252657327_">
		<path class="st0" d="M195.8,73.3l-2.7-2.8c-0.2-0.2-0.1-0.5,0.1-0.7L205,57.1c0.2-0.2,0.6-0.3,0.7-0.1l3.5,3.6
			c0.2,0.2,0.1,0.5-0.1,0.7l-12.7,11.8C196.3,73.4,196,73.4,195.8,73.3z"/>
	</g>
	<g id="_x3C_Radial_Repeat_x3E__00000110443629607520986190000008263470733917921927_">
		<path class="st0" d="M200.4,78.6l-2.5-3c-0.2-0.2-0.1-0.5,0.1-0.7l12.8-11.7c0.2-0.2,0.6-0.2,0.7,0l3.2,3.9
			c0.2,0.2,0.1,0.5-0.2,0.7l-13.6,10.8C200.9,78.8,200.6,78.8,200.4,78.6z"/>
	</g>
	<g id="_x3C_Radial_Repeat_x3E__00000085967812086193087660000000234660960735986877_">
		<path class="st0" d="M204.6,84.3l-2.2-3.2c-0.1-0.2-0.1-0.5,0.2-0.7l13.7-10.6c0.3-0.2,0.6-0.2,0.7,0l2.9,4.1
			c0.1,0.2,0.1,0.5-0.2,0.7l-14.4,9.6C205,84.5,204.7,84.5,204.6,84.3z"/>
	</g>
	<g id="_x3C_Radial_Repeat_x3E__00000042703271436703527030000015075164970868310407_">
		<path class="st0" d="M208.2,90.3l-2-3.3c-0.1-0.2,0-0.5,0.2-0.6l14.5-9.5c0.3-0.2,0.6-0.1,0.7,0.1l2.6,4.4c0.1,0.2,0,0.5-0.3,0.7
			l-15.1,8.5C208.7,90.6,208.4,90.5,208.2,90.3z"/>
	</g>
	<g id="_x3C_Radial_Repeat_x3E__00000128461316973405208860000013629601953237851796_">
		<path class="st0" d="M211.4,96.6l-1.7-3.5c-0.1-0.2,0-0.5,0.3-0.6l15.2-8.3c0.3-0.2,0.6-0.1,0.7,0.1l2.2,4.6
			c0.1,0.2,0,0.5-0.3,0.7l-15.8,7.2C211.8,96.9,211.5,96.8,211.4,96.6z"/>
	</g>
	<g id="_x3C_Radial_Repeat_x3E__00000010994109063602381350000017023048501060848284_">
		<path class="st0" d="M214.1,103.1l-1.4-3.6c-0.1-0.2,0.1-0.5,0.3-0.6l15.8-7c0.3-0.1,0.6,0,0.7,0.2l1.8,4.7
			c0.1,0.2-0.1,0.5-0.4,0.6l-16.3,5.9C214.5,103.4,214.2,103.3,214.1,103.1z"/>
	</g>
	<g id="_x3C_Radial_Repeat_x3E__00000169542732347763956160000012971410706738854794_">
		<path class="st0" d="M216.3,109.8l-1.1-3.7c-0.1-0.2,0.1-0.5,0.4-0.6l16.3-5.7c0.3-0.1,0.6,0,0.7,0.3l1.5,4.9
			c0.1,0.2-0.1,0.5-0.4,0.6l-16.7,4.6C216.6,110.2,216.3,110.1,216.3,109.8z"/>
	</g>
	<g id="_x3C_Radial_Repeat_x3E__00000065792805319632197560000015726705901794187657_">
		<path class="st0" d="M217.8,116.7l-0.8-3.8c0-0.2,0.1-0.5,0.4-0.5l16.8-4.4c0.3-0.1,0.6,0.1,0.7,0.3l1.1,5
			c0.1,0.2-0.2,0.5-0.5,0.6l-17,3.2C218.2,117.1,217.9,116.9,217.8,116.7z"/>
	</g>
	<g id="_x3C_Radial_Repeat_x3E__00000162340516272235554270000014568941279961235378_">
		<path class="st0" d="M218.9,123.7l-0.5-3.8c0-0.2,0.2-0.5,0.5-0.5l17.1-3c0.3-0.1,0.6,0.1,0.6,0.4l0.7,5c0,0.2-0.2,0.5-0.5,0.5
			l-17.2,1.8C219.2,124.1,218.9,123.9,218.9,123.7z"/>
	</g>
	<g id="_x3C_Radial_Repeat_x3E__00000082365576951913738000000005588543853951345067_">
		<path class="st0" d="M219.4,130.7l-0.2-3.9c0-0.2,0.2-0.4,0.5-0.5l17.2-1.7c0.3,0,0.6,0.2,0.6,0.4l0.3,5.1c0,0.3-0.2,0.5-0.5,0.5
			l-17.3,0.5C219.6,131.2,219.4,131,219.4,130.7z"/>
	</g>
	<g id="_x3C_Radial_Repeat_x3E__00000074440207617098792790000006372093536353584790_">
		<path class="st0" d="M219.3,137.8l0.1-3.9c0-0.2,0.2-0.4,0.5-0.4l17.3-0.3c0.3,0,0.6,0.2,0.6,0.5l-0.2,5.1c0,0.3-0.3,0.4-0.6,0.4
			l-17.3-0.9C219.5,138.2,219.2,138,219.3,137.8z"/>
	</g>
	<g id="_x3C_Radial_Repeat_x3E__00000124149878235667298230000013658420243820980643_">
		<path class="st0" d="M218.6,144.8l0.4-3.8c0-0.2,0.3-0.4,0.6-0.4l17.3,1.1c0.3,0,0.6,0.3,0.5,0.5l-0.6,5c0,0.3-0.3,0.4-0.6,0.4
			l-17.2-2.3C218.8,145.3,218.6,145,218.6,144.8z"/>
	</g>
	<g id="_x3C_Radial_Repeat_x3E__00000005237019778467907270000006437601375344928703_">
		<path class="st0" d="M217.4,151.7l0.7-3.8c0-0.2,0.3-0.4,0.6-0.3l17.1,2.5c0.3,0,0.5,0.3,0.5,0.5l-1,5c0,0.2-0.3,0.4-0.6,0.3
			l-16.9-3.7C217.5,152.2,217.3,152,217.4,151.7z"/>
	</g>
	<g id="_x3C_Radial_Repeat_x3E__00000016787985000726549370000000774346225465096358_">
		<path class="st0" d="M215.6,158.6l1-3.7c0.1-0.2,0.3-0.4,0.6-0.3l16.9,3.9c0.3,0.1,0.5,0.3,0.4,0.6l-1.4,4.9
			c-0.1,0.2-0.4,0.4-0.7,0.3l-16.6-5.1C215.7,159.1,215.5,158.8,215.6,158.6z"/>
	</g>
	<g id="_x3C_Radial_Repeat_x3E__00000067943887734784064730000001609551911298793611_">
		<path class="st0" d="M213.3,165.2l1.3-3.6c0.1-0.2,0.4-0.3,0.6-0.2l16.5,5.2c0.3,0.1,0.5,0.4,0.4,0.6l-1.7,4.8
			c-0.1,0.2-0.4,0.3-0.7,0.2l-16.1-6.4C213.3,165.7,213.2,165.4,213.3,165.2z"/>
	</g>
	<g id="_x3C_Radial_Repeat_x3E__00000026123399060340057960000010094412752138762429_">
		<path class="st0" d="M210.4,171.7l1.6-3.5c0.1-0.2,0.4-0.3,0.7-0.2l16,6.5c0.3,0.1,0.5,0.4,0.3,0.7l-2.1,4.6
			c-0.1,0.2-0.4,0.3-0.7,0.2l-15.5-7.6C210.4,172.2,210.3,171.9,210.4,171.7z"/>
	</g>
	<g id="_x3C_Radial_Repeat_x3E__00000132786224052974764080000014648339627977887124_">
		<path class="st0" d="M207,177.9l1.9-3.4c0.1-0.2,0.4-0.3,0.7-0.1l15.5,7.8c0.3,0.1,0.4,0.5,0.3,0.7l-2.5,4.4
			c-0.1,0.2-0.4,0.3-0.7,0.1l-14.9-8.9C207,178.4,206.9,178.1,207,177.9z"/>
	</g>
	<g id="_x3C_Radial_Repeat_x3E__00000158015175080369706730000006493357437905364925_">
		<path class="st0" d="M203.2,183.8l2.2-3.2c0.1-0.2,0.4-0.2,0.7-0.1l14.8,9c0.3,0.2,0.4,0.5,0.2,0.7l-2.8,4.2
			c-0.1,0.2-0.5,0.2-0.7,0.1l-14.1-10C203.1,184.3,203.1,184,203.2,183.8z"/>
	</g>
	<g id="_x3C_Radial_Repeat_x3E__00000093875058844747557600000006789138021131875251_">
		<path class="st0" d="M198.9,189.4l2.4-3c0.1-0.2,0.4-0.2,0.7,0l14,10.2c0.3,0.2,0.3,0.5,0.2,0.7l-3.2,4c-0.2,0.2-0.5,0.2-0.7,0
			L199,190C198.8,189.8,198.7,189.5,198.9,189.4z"/>
	</g>
	<g id="_x3C_Radial_Repeat_x3E__00000052784322794341737230000009774269687044979609_">
		<path class="st0" d="M194.1,194.6l2.7-2.8c0.2-0.2,0.5-0.2,0.7,0l13.1,11.3c0.2,0.2,0.3,0.5,0.1,0.7l-3.5,3.7
			c-0.2,0.2-0.5,0.2-0.7-0.1l-12.3-12.2C194,195.1,194,194.7,194.1,194.6z"/>
	</g>
	<g id="_x3C_Radial_Repeat_x3E__00000002368587310563740280000017112457591460093836_">
		<path class="st0" d="M189,199.4l2.9-2.6c0.2-0.2,0.5-0.1,0.7,0.1l12.2,12.3c0.2,0.2,0.3,0.6,0.1,0.7l-3.8,3.4
			c-0.2,0.2-0.5,0.1-0.7-0.1L189,200.1C188.8,199.9,188.8,199.5,189,199.4z"/>
	</g>
	<g id="_x3C_Radial_Repeat_x3E__00000124158918866363227470000007767320966122537630_">
		<path class="st0" d="M183.5,203.8l3.1-2.3c0.2-0.1,0.5-0.1,0.7,0.1l11.2,13.3c0.2,0.2,0.2,0.6,0,0.7l-4,3.1
			c-0.2,0.2-0.5,0.1-0.7-0.2l-10.2-14C183.2,204.2,183.3,203.9,183.5,203.8z"/>
	</g>
	<g id="_x3C_Radial_Repeat_x3E__00000028290692282014441150000016410130410166556314_">
		<path class="st0" d="M177.6,207.7l3.2-2.1c0.2-0.1,0.5,0,0.7,0.2l10.1,14.1c0.2,0.3,0.2,0.6-0.1,0.7l-4.3,2.8
			c-0.2,0.1-0.5,0-0.7-0.2l-9.1-14.8C177.4,208.1,177.4,207.8,177.6,207.7z"/>
	</g>
	<g id="_x3C_Radial_Repeat_x3E__00000052078699294207760280000006874446075921824385_">
		<path class="st0" d="M171.4,211.1l3.4-1.8c0.2-0.1,0.5,0,0.6,0.2l8.9,14.9c0.2,0.3,0.1,0.6-0.1,0.7l-4.5,2.4
			c-0.2,0.1-0.5,0-0.7-0.3l-7.8-15.5C171.2,211.6,171.2,211.3,171.4,211.1z"/>
	</g>
	<g id="_x3C_Radial_Repeat_x3E__00000142159725272663837580000011756300558372877470_">
		<path class="st0" d="M165,214.1l3.5-1.5c0.2-0.1,0.5,0,0.6,0.3l7.7,15.5c0.1,0.3,0.1,0.6-0.2,0.7l-4.6,2c-0.2,0.1-0.5-0.1-0.6-0.3
			l-6.6-16C164.7,214.5,164.8,214.2,165,214.1z"/>
	</g>
	<g id="_x3C_Radial_Repeat_x3E__00000181074179791480573530000007363009858145140356_">
		<path class="st0" d="M158.4,216.5l3.7-1.3c0.2-0.1,0.5,0.1,0.6,0.3l6.4,16.1c0.1,0.3,0,0.6-0.2,0.7L164,234
			c-0.2,0.1-0.5-0.1-0.6-0.4l-5.3-16.5C158.1,216.9,158.2,216.6,158.4,216.5z"/>
	</g>
	<g id="_x3C_Radial_Repeat_x3E__00000080926567656529946450000008264768385589523072_">
		<path class="st0" d="M151.6,218.4l3.7-1c0.2-0.1,0.5,0.1,0.6,0.4l5.1,16.6c0.1,0.3,0,0.6-0.3,0.7l-4.9,1.3
			c-0.2,0.1-0.5-0.1-0.6-0.4l-3.9-16.9C151.2,218.7,151.4,218.4,151.6,218.4z"/>
	</g>
	<g id="_x3C_Radial_Repeat_x3E__00000086661263925219484660000007311745390456460417_">
		<path class="st0" d="M144.7,219.7l3.8-0.6c0.2,0,0.5,0.2,0.5,0.4l3.7,16.9c0.1,0.3-0.1,0.6-0.3,0.7l-5,0.9c-0.2,0-0.5-0.2-0.5-0.5
			l-2.5-17.1C144.3,220,144.4,219.7,144.7,219.7z"/>
	</g>
	<g id="_x3C_Radial_Repeat_x3E__00000116201275518230294920000003950920706609609881_">
		<path class="st0" d="M137.7,220.4l3.8-0.3c0.2,0,0.4,0.2,0.5,0.5l2.4,17.2c0,0.3-0.1,0.6-0.4,0.6l-5,0.5c-0.3,0-0.5-0.2-0.5-0.5
			l-1.2-17.3C137.2,220.7,137.4,220.4,137.7,220.4z"/>
	</g>
</g>
<g>
	<g id="_x3C_Radial_Repeat_x3E__00000004533258294884958110000017904091164520127879_">
		<path class="st0" d="M130.9,187.4l2.6,0c0.2,0,0.3,0.1,0.3,0.3l0.6,10.7c0,0.2-0.1,0.4-0.3,0.4l-3.5,0c-0.2,0-0.3-0.2-0.3-0.4
			l0.2-10.7C130.6,187.5,130.8,187.4,130.9,187.4z"/>
	</g>
	<g id="_x3C_Radial_Repeat_x3E__00000005959392810784951410000009999024993651555245_">
		<path class="st0" d="M126.6,187.1l2.6,0.2c0.2,0,0.3,0.2,0.3,0.3l-0.2,10.7c0,0.2-0.2,0.4-0.3,0.3l-3.5-0.2
			c-0.2,0-0.3-0.2-0.3-0.4l1-10.7C126.3,187.2,126.4,187.1,126.6,187.1z"/>
	</g>
	<g id="_x3C_Radial_Repeat_x3E__00000145773948150647337020000005953974143011503520_">
		<path class="st0" d="M122.2,186.5l2.6,0.4c0.2,0,0.3,0.2,0.3,0.4L124,198c0,0.2-0.2,0.3-0.4,0.3l-3.4-0.5c-0.2,0-0.3-0.2-0.2-0.4
			l1.9-10.6C121.9,186.6,122.1,186.5,122.2,186.5z"/>
	</g>
	<g id="_x3C_Radial_Repeat_x3E__00000085245567434850988460000010236248609459022214_">
		<path class="st0" d="M118,185.6l2.6,0.6c0.2,0,0.3,0.2,0.2,0.4l-1.9,10.6c0,0.2-0.2,0.3-0.4,0.3l-3.4-0.8c-0.2,0-0.3-0.2-0.2-0.4
			l2.7-10.4C117.6,185.7,117.8,185.5,118,185.6z"/>
	</g>
	<g id="_x3C_Radial_Repeat_x3E__00000170275407060038656870000002284762108691986562_">
		<path class="st0" d="M113.8,184.3l2.5,0.8c0.2,0,0.2,0.2,0.2,0.4l-2.8,10.4c-0.1,0.2-0.2,0.3-0.4,0.3l-3.3-1.1
			c-0.2-0.1-0.2-0.2-0.2-0.4l3.6-10.1C113.4,184.3,113.6,184.2,113.8,184.3z"/>
	</g>
	<g id="_x3C_Radial_Repeat_x3E__00000095323987953004727810000002379909494195855774_">
		<path class="st0" d="M109.7,182.7l2.4,1c0.1,0.1,0.2,0.2,0.2,0.4l-3.6,10.1c-0.1,0.2-0.3,0.3-0.4,0.2l-3.2-1.3
			c-0.2-0.1-0.2-0.3-0.1-0.4l4.4-9.8C109.4,182.7,109.6,182.6,109.7,182.7z"/>
	</g>
	<g id="_x3C_Radial_Repeat_x3E__00000152255001790368554300000013759351970038812607_">
		<path class="st0" d="M105.8,180.7l2.3,1.2c0.1,0.1,0.2,0.3,0.1,0.4l-4.4,9.8c-0.1,0.2-0.3,0.3-0.4,0.2l-3.1-1.6
			c-0.2-0.1-0.2-0.3-0.1-0.5l5.1-9.4C105.4,180.7,105.6,180.7,105.8,180.7z"/>
	</g>
	<g id="_x3C_Radial_Repeat_x3E__00000073714411338600561190000008920819475516270751_">
		<path class="st0" d="M102,178.5l2.2,1.4c0.1,0.1,0.2,0.3,0.1,0.4l-5.2,9.4c-0.1,0.2-0.3,0.2-0.5,0.1l-2.9-1.8
			c-0.1-0.1-0.2-0.3-0.1-0.5l5.9-9C101.7,178.5,101.9,178.4,102,178.5z"/>
	</g>
	<g id="_x3C_Radial_Repeat_x3E__00000057853144034046396600000007566406288695428760_">
		<path class="st0" d="M98.5,175.9l2.1,1.6c0.1,0.1,0.2,0.3,0.1,0.4l-5.9,9c-0.1,0.2-0.3,0.2-0.5,0.1l-2.8-2.1
			c-0.1-0.1-0.2-0.3,0-0.5L98,176C98.1,175.9,98.3,175.8,98.5,175.9z"/>
	</g>
	<g id="_x3C_Radial_Repeat_x3E__00000085222024897144343270000013838499626554106812_">
		<path class="st0" d="M95.1,173.1l2,1.7c0.1,0.1,0.1,0.3,0,0.4l-6.6,8.5c-0.1,0.2-0.3,0.2-0.5,0.1l-2.6-2.3c-0.1-0.1-0.1-0.3,0-0.5
			l7.3-7.9C94.8,173,95,173,95.1,173.1z"/>
	</g>
	<g id="_x3C_Radial_Repeat_x3E__00000162322574966240998000000005269557875606208408_">
		<path class="st0" d="M92,170l1.8,1.9c0.1,0.1,0.1,0.3,0,0.4l-7.3,7.9c-0.1,0.1-0.3,0.2-0.5,0l-2.4-2.5c-0.1-0.1-0.1-0.3,0-0.5
			l7.9-7.3C91.7,169.9,91.9,169.9,92,170z"/>
	</g>
	<g id="_x3C_Radial_Repeat_x3E__00000028291212670854143210000014522589247695630782_">
		<path class="st0" d="M89.2,166.7l1.7,2c0.1,0.1,0.1,0.3-0.1,0.4l-7.9,7.3c-0.1,0.1-0.4,0.1-0.5,0l-2.2-2.7
			c-0.1-0.1-0.1-0.3,0.1-0.5l8.4-6.7C88.9,166.6,89.1,166.6,89.2,166.7z"/>
	</g>
	<g id="_x3C_Radial_Repeat_x3E__00000109001780487423133950000006803702770474098342_">
		<path class="st0" d="M86.6,163.2l1.5,2.2c0.1,0.1,0.1,0.3-0.1,0.4l-8.5,6.6c-0.2,0.1-0.4,0.1-0.5,0l-2-2.8c-0.1-0.1,0-0.3,0.1-0.5
			l8.9-6C86.3,163,86.5,163,86.6,163.2z"/>
	</g>
	<g id="_x3C_Radial_Repeat_x3E__00000160897033608393457090000012191225763855047852_">
		<path class="st0" d="M84.3,159.4l1.3,2.3c0.1,0.1,0,0.3-0.1,0.4l-9,5.9c-0.2,0.1-0.4,0.1-0.5-0.1l-1.8-3c-0.1-0.1,0-0.3,0.1-0.4
			l9.4-5.2C84,159.3,84.2,159.3,84.3,159.4z"/>
	</g>
	<g id="_x3C_Radial_Repeat_x3E__00000000917703938643433000000003710249835972243355_">
		<path class="st0" d="M82.4,155.5l1.1,2.4c0.1,0.1,0,0.3-0.2,0.4l-9.4,5.2c-0.2,0.1-0.4,0-0.5-0.1l-1.5-3.1c-0.1-0.2,0-0.3,0.2-0.4
			l9.8-4.5C82.1,155.3,82.3,155.4,82.4,155.5z"/>
	</g>
	<g id="_x3C_Radial_Repeat_x3E__00000095298863034974128120000010350063106471623057_">
		<path class="st0" d="M80.7,151.5l1,2.5c0.1,0.2,0,0.3-0.2,0.4l-9.8,4.4c-0.2,0.1-0.4,0-0.4-0.2l-1.3-3.2c-0.1-0.2,0-0.3,0.2-0.4
			l10.1-3.6C80.5,151.3,80.6,151.3,80.7,151.5z"/>
	</g>
	<g id="_x3C_Radial_Repeat_x3E__00000134244875159754536310000003433832715059063212_">
		<path class="st0" d="M79.4,147.3l0.8,2.5c0,0.2-0.1,0.3-0.2,0.4l-10.1,3.6c-0.2,0.1-0.4,0-0.4-0.2l-1-3.3c0-0.2,0.1-0.3,0.3-0.4
			l10.4-2.8C79.2,147.1,79.3,147.2,79.4,147.3z"/>
	</g>
	<g id="_x3C_Radial_Repeat_x3E__00000155862499324197435300000017370562997885931659_">
		<path class="st0" d="M78.4,143l0.5,2.6c0,0.2-0.1,0.3-0.3,0.4l-10.4,2.8c-0.2,0.1-0.4-0.1-0.4-0.2l-0.7-3.4c0-0.2,0.1-0.3,0.3-0.4
			l10.6-2C78.2,142.8,78.4,142.9,78.4,143z"/>
	</g>
	<g id="_x3C_Radial_Repeat_x3E__00000039814429064615324560000010719839395296458173_">
		<path class="st0" d="M77.8,138.7l0.3,2.6c0,0.2-0.1,0.3-0.3,0.3l-10.6,1.9c-0.2,0-0.4-0.1-0.4-0.3l-0.5-3.4c0-0.2,0.1-0.3,0.3-0.3
			l10.7-1.1C77.6,138.4,77.8,138.6,77.8,138.7z"/>
	</g>
	<g id="_x3C_Radial_Repeat_x3E__00000083082259690268601680000011665878832546614927_">
		<path class="st0" d="M77.5,134.3l0.1,2.6c0,0.2-0.1,0.3-0.3,0.3l-10.7,1.1c-0.2,0-0.4-0.1-0.4-0.3l-0.2-3.5c0-0.2,0.1-0.3,0.3-0.3
			l10.7-0.3C77.3,134.1,77.5,134.2,77.5,134.3z"/>
	</g>
	<g id="_x3C_Radial_Repeat_x3E__00000055691829336997262570000007745385430180146333_">
		<path class="st0" d="M77.6,130l-0.1,2.6c0,0.2-0.2,0.3-0.3,0.3l-10.7,0.2c-0.2,0-0.4-0.1-0.4-0.3l0.1-3.5c0-0.2,0.2-0.3,0.4-0.3
			l10.7,0.6C77.4,129.7,77.6,129.8,77.6,130z"/>
	</g>
	<g id="_x3C_Radial_Repeat_x3E__00000110429399689107212850000015447662597569386638_">
		<path class="st0" d="M78,125.6l-0.3,2.6c0,0.2-0.2,0.3-0.4,0.3l-10.7-0.6c-0.2,0-0.3-0.2-0.3-0.3l0.4-3.4c0-0.2,0.2-0.3,0.4-0.3
			l10.6,1.5C77.9,125.3,78,125.5,78,125.6z"/>
	</g>
	<g id="_x3C_Radial_Repeat_x3E__00000160152800380644892660000013063378198789925012_">
		<path class="st0" d="M78.8,121.3l-0.5,2.6c0,0.2-0.2,0.3-0.4,0.2l-10.6-1.5c-0.2,0-0.3-0.2-0.3-0.4l0.7-3.4c0-0.2,0.2-0.3,0.4-0.2
			l10.5,2.3C78.7,121,78.8,121.1,78.8,121.3z"/>
	</g>
	<g id="_x3C_Radial_Repeat_x3E__00000176038875456345988530000008743385134377589632_">
		<path class="st0" d="M79.9,117.1l-0.7,2.5c0,0.2-0.2,0.2-0.4,0.2l-10.5-2.4c-0.2,0-0.3-0.2-0.3-0.4l0.9-3.3c0-0.2,0.2-0.3,0.4-0.2
			l10.3,3.2C79.8,116.8,79.9,116.9,79.9,117.1z"/>
	</g>
	<g id="_x3C_Radial_Repeat_x3E__00000051371605756805152400000011757805028497318326_">
		<path class="st0" d="M81.3,113l-0.9,2.5c-0.1,0.2-0.2,0.2-0.4,0.2l-10.3-3.2c-0.2-0.1-0.3-0.2-0.2-0.4l1.2-3.2
			c0.1-0.2,0.3-0.2,0.4-0.2l10,4C81.3,112.6,81.4,112.8,81.3,113z"/>
	</g>
	<g id="_x3C_Radial_Repeat_x3E__00000021840416040333439950000016597865407129830569_">
		<path class="st0" d="M83.1,109l-1.1,2.4c-0.1,0.1-0.3,0.2-0.4,0.1l-10-4c-0.2-0.1-0.3-0.3-0.2-0.4l1.5-3.1
			c0.1-0.2,0.3-0.2,0.4-0.1l9.6,4.8C83.1,108.6,83.2,108.8,83.1,109z"/>
	</g>
	<g id="_x3C_Radial_Repeat_x3E__00000036233331100079165160000000914097579824970637_">
		<path class="st0" d="M85.2,105.1l-1.3,2.3c-0.1,0.1-0.3,0.2-0.4,0.1l-9.6-4.8c-0.2-0.1-0.3-0.3-0.2-0.4l1.7-3
			c0.1-0.1,0.3-0.2,0.5-0.1l9.2,5.5C85.2,104.8,85.3,105,85.2,105.1z"/>
	</g>
	<g id="_x3C_Radial_Repeat_x3E__00000045616197980026021970000004711157386621114810_">
		<path class="st0" d="M87.6,101.5l-1.5,2.2c-0.1,0.1-0.3,0.2-0.4,0.1l-9.2-5.6c-0.2-0.1-0.2-0.3-0.1-0.5l1.9-2.9
			c0.1-0.1,0.3-0.2,0.5-0.1l8.7,6.2C87.6,101.1,87.7,101.3,87.6,101.5z"/>
	</g>
	<g id="_x3C_Radial_Repeat_x3E__00000114034415682240514310000004036794359266569362_">
		<path class="st0" d="M90.3,98l-1.7,2.1c-0.1,0.1-0.3,0.1-0.4,0l-8.7-6.3c-0.2-0.1-0.2-0.3-0.1-0.5l2.2-2.7c0.1-0.1,0.3-0.1,0.5,0
			l8.2,6.9C90.4,97.7,90.4,97.9,90.3,98z"/>
	</g>
	<g id="_x3C_Radial_Repeat_x3E__00000100373905011784530300000002632029517605922721_">
		<path class="st0" d="M93.2,94.8l-1.8,1.9c-0.1,0.1-0.3,0.1-0.4,0l-8.2-7c-0.2-0.1-0.2-0.3-0.1-0.5l2.4-2.5c0.1-0.1,0.3-0.1,0.5,0
			l7.6,7.6C93.3,94.5,93.4,94.7,93.2,94.8z"/>
	</g>
	<g id="_x3C_Radial_Repeat_x3E__00000107585521921600473200000013155516436542341790_">
		<path class="st0" d="M96.4,91.8l-2,1.8c-0.1,0.1-0.3,0.1-0.4,0l-7.6-7.6c-0.1-0.1-0.1-0.4,0-0.5l2.6-2.3c0.1-0.1,0.3-0.1,0.5,0.1
			l7,8.2C96.6,91.5,96.6,91.7,96.4,91.8z"/>
	</g>
	<g id="_x3C_Radial_Repeat_x3E__00000009581883780425385510000005090236854247059084_">
		<path class="st0" d="M99.9,89.1l-2.1,1.6c-0.1,0.1-0.3,0.1-0.4-0.1l-7-8.2c-0.1-0.2-0.1-0.4,0-0.5l2.7-2.1
			c0.1-0.1,0.3-0.1,0.5,0.1l6.3,8.7C100,88.8,100,89,99.9,89.1z"/>
	</g>
	<g id="_x3C_Radial_Repeat_x3E__00000072980897691616586420000007160782219059874205_">
		<path class="st0" d="M103.5,86.7l-2.2,1.4c-0.1,0.1-0.3,0-0.4-0.1l-6.3-8.7c-0.1-0.2-0.1-0.4,0.1-0.5l2.9-1.9
			c0.1-0.1,0.3,0,0.4,0.1l5.6,9.2C103.7,86.4,103.7,86.6,103.5,86.7z"/>
	</g>
	<g id="_x3C_Radial_Repeat_x3E__00000011726673343686282060000002766442934447631010_">
		<path class="st0" d="M107.3,84.5l-2.3,1.2c-0.1,0.1-0.3,0-0.4-0.1L99,76.4C98.9,76.3,99,76,99.1,76l3-1.6c0.2-0.1,0.3,0,0.4,0.2
			l4.8,9.6C107.5,84.3,107.5,84.5,107.3,84.5z"/>
	</g>
	<g id="_x3C_Radial_Repeat_x3E__00000023278740394241011600000002030201743522966703_">
		<path class="st0" d="M111.3,82.7l-2.4,1.1c-0.1,0.1-0.3,0-0.4-0.2l-4.8-9.6c-0.1-0.2,0-0.4,0.1-0.5l3.2-1.4c0.2-0.1,0.3,0,0.4,0.2
			l4.1,10C111.5,82.5,111.5,82.7,111.3,82.7z"/>
	</g>
	<g id="_x3C_Radial_Repeat_x3E__00000088823113129508538650000000146467747398686097_">
		<path class="st0" d="M115.4,81.2l-2.5,0.9c-0.2,0.1-0.3,0-0.4-0.2l-4-10c-0.1-0.2,0-0.4,0.2-0.4l3.3-1.1c0.2-0.1,0.3,0.1,0.4,0.2
			l3.2,10.2C115.7,81,115.6,81.2,115.4,81.2z"/>
	</g>
	<g id="_x3C_Radial_Repeat_x3E__00000102502676356266942420000004954516153090216833_">
		<path class="st0" d="M119.7,80.1l-2.6,0.7c-0.2,0-0.3-0.1-0.4-0.2l-3.2-10.3c-0.1-0.2,0-0.4,0.2-0.4l3.4-0.9
			c0.2,0,0.3,0.1,0.4,0.3l2.4,10.5C119.9,79.9,119.8,80,119.7,80.1z"/>
	</g>
	<g id="_x3C_Radial_Repeat_x3E__00000005242527550819347660000007348192642965362827_">
		<path class="st0" d="M124,79.3l-2.6,0.4c-0.2,0-0.3-0.1-0.4-0.3L118.7,69c0-0.2,0.1-0.4,0.2-0.4l3.4-0.6c0.2,0,0.3,0.1,0.4,0.3
			l1.6,10.6C124.2,79.1,124.1,79.2,124,79.3z"/>
	</g>
	<g id="_x3C_Radial_Repeat_x3E__00000171686402589701434200000014851133658284185742_">
		<path class="st0" d="M128.3,78.8l-2.6,0.2c-0.2,0-0.3-0.1-0.3-0.3l-1.5-10.6c0-0.2,0.1-0.4,0.3-0.4l3.4-0.3c0.2,0,0.3,0.1,0.3,0.3
			l0.7,10.7C128.6,78.6,128.5,78.8,128.3,78.8z"/>
	</g>
	<g id="_x3C_Radial_Repeat_x3E__00000150824116176849924040000010145679921575803279_">
		<path class="st0" d="M132.7,78.7l-2.6,0c-0.2,0-0.3-0.1-0.3-0.3l-0.6-10.7c0-0.2,0.1-0.4,0.3-0.4l3.5,0c0.2,0,0.3,0.2,0.3,0.4
			L133,78.4C133,78.6,132.9,78.7,132.7,78.7z"/>
	</g>
	<g id="_x3C_Radial_Repeat_x3E__00000085214555561144163710000014043762777290892204_">
		<path class="st0" d="M137.1,79l-2.6-0.2c-0.2,0-0.3-0.2-0.3-0.3l0.2-10.7c0-0.2,0.2-0.4,0.3-0.3l3.5,0.2c0.2,0,0.3,0.2,0.3,0.4
			l-1,10.7C137.4,78.8,137.2,79,137.1,79z"/>
	</g>
	<g id="_x3C_Radial_Repeat_x3E__00000127723049882546956570000004291106291517757342_">
		<path class="st0" d="M141.4,79.6l-2.6-0.4c-0.2,0-0.3-0.2-0.3-0.4l1.1-10.7c0-0.2,0.2-0.3,0.4-0.3l3.4,0.5c0.2,0,0.3,0.2,0.2,0.4
			l-1.9,10.6C141.7,79.5,141.6,79.6,141.4,79.6z"/>
	</g>
	<g id="_x3C_Radial_Repeat_x3E__00000126312461642982745340000008994745383665256358_">
		<path class="st0" d="M145.7,80.5l-2.6-0.6c-0.2,0-0.3-0.2-0.2-0.4l1.9-10.6c0-0.2,0.2-0.3,0.4-0.3l3.4,0.8c0.2,0,0.3,0.2,0.2,0.4
			L146,80.3C146,80.4,145.8,80.5,145.7,80.5z"/>
	</g>
	<g id="_x3C_Radial_Repeat_x3E__00000150784534229882522870000005718224838774571170_">
		<path class="st0" d="M149.9,81.8l-2.5-0.8c-0.2,0-0.2-0.2-0.2-0.4l2.8-10.4c0.1-0.2,0.2-0.3,0.4-0.3l3.3,1.1
			c0.2,0.1,0.2,0.2,0.2,0.4l-3.6,10.1C150.2,81.7,150,81.8,149.9,81.8z"/>
	</g>
	<g id="_x3C_Radial_Repeat_x3E__00000148626540942623568140000003571611446151836596_">
		<path class="st0" d="M153.9,83.4l-2.4-1c-0.1-0.1-0.2-0.2-0.2-0.4l3.6-10.1c0.1-0.2,0.3-0.3,0.4-0.2l3.2,1.3
			c0.2,0.1,0.2,0.3,0.1,0.4l-4.4,9.8C154.3,83.4,154.1,83.5,153.9,83.4z"/>
	</g>
	<g id="_x3C_Radial_Repeat_x3E__00000158748396161547345750000014110863236479160716_">
		<path class="st0" d="M157.8,85.3l-2.3-1.2c-0.1-0.1-0.2-0.3-0.1-0.4l4.4-9.8c0.1-0.2,0.3-0.3,0.4-0.2l3.1,1.6
			c0.2,0.1,0.2,0.3,0.1,0.5l-5.1,9.4C158.2,85.4,158,85.4,157.8,85.3z"/>
	</g>
	<g id="_x3C_Radial_Repeat_x3E__00000098902983734293969610000014391987626926402986_">
		<path class="st0" d="M161.6,87.6l-2.2-1.4c-0.1-0.1-0.2-0.3-0.1-0.4l5.2-9.4c0.1-0.2,0.3-0.2,0.5-0.1l2.9,1.8
			c0.1,0.1,0.2,0.3,0.1,0.5l-5.9,9C161.9,87.6,161.7,87.7,161.6,87.6z"/>
	</g>
	<g id="_x3C_Radial_Repeat_x3E__00000023968074836890854880000011214946122918576048_">
		<path class="st0" d="M165.2,90.1l-2.1-1.6c-0.1-0.1-0.2-0.3-0.1-0.4l5.9-9c0.1-0.2,0.3-0.2,0.5-0.1l2.8,2.1c0.1,0.1,0.2,0.3,0,0.5
			l-6.6,8.5C165.5,90.2,165.3,90.2,165.2,90.1z"/>
	</g>
	<g id="_x3C_Radial_Repeat_x3E__00000062177241150071954110000009721921504689688472_">
		<path class="st0" d="M168.5,93l-2-1.7c-0.1-0.1-0.1-0.3,0-0.4l6.6-8.5c0.1-0.2,0.3-0.2,0.5-0.1l2.6,2.3c0.1,0.1,0.1,0.3,0,0.5
			l-7.3,7.9C168.8,93.1,168.6,93.1,168.5,93z"/>
	</g>
	<g id="_x3C_Radial_Repeat_x3E__00000079476500291727742920000003888219384419941027_">
		<path class="st0" d="M171.6,96l-1.8-1.9c-0.1-0.1-0.1-0.3,0-0.4l7.3-7.9c0.1-0.1,0.3-0.2,0.5,0l2.4,2.5c0.1,0.1,0.1,0.3,0,0.5
			l-7.9,7.3C171.9,96.2,171.7,96.2,171.6,96z"/>
	</g>
	<g id="_x3C_Radial_Repeat_x3E__00000080165309256510848900000005182166758994646712_">
		<path class="st0" d="M174.5,99.4l-1.7-2c-0.1-0.1-0.1-0.3,0.1-0.4l7.9-7.3c0.1-0.1,0.4-0.1,0.5,0l2.2,2.7c0.1,0.1,0.1,0.3-0.1,0.5
			l-8.4,6.7C174.8,99.5,174.6,99.5,174.5,99.4z"/>
	</g>
	<g id="_x3C_Radial_Repeat_x3E__00000080189929433653469020000007222912033272974978_">
		<path class="st0" d="M177,102.9l-1.5-2.2c-0.1-0.1-0.1-0.3,0.1-0.4l8.5-6.6c0.2-0.1,0.4-0.1,0.5,0l2,2.8c0.1,0.1,0,0.3-0.1,0.5
			l-8.9,6C177.3,103.1,177.1,103,177,102.9z"/>
	</g>
	<g id="_x3C_Radial_Repeat_x3E__00000010298032821898859080000002999237928943336832_">
		<path class="st0" d="M179.3,106.6l-1.3-2.3c-0.1-0.1,0-0.3,0.1-0.4l9-5.9c0.2-0.1,0.4-0.1,0.5,0.1l1.8,3c0.1,0.1,0,0.3-0.1,0.4
			l-9.4,5.2C179.6,106.8,179.4,106.8,179.3,106.6z"/>
	</g>
	<g id="_x3C_Radial_Repeat_x3E__00000054263677938735984680000000055212960487425468_">
		<path class="st0" d="M181.3,110.6l-1.1-2.4c-0.1-0.1,0-0.3,0.2-0.4l9.4-5.2c0.2-0.1,0.4,0,0.5,0.1l1.5,3.1c0.1,0.2,0,0.3-0.2,0.4
			l-9.8,4.5C181.5,110.8,181.3,110.7,181.3,110.6z"/>
	</g>
	<g id="_x3C_Radial_Repeat_x3E__00000097492254992110916420000007437436932484408193_">
		<path class="st0" d="M182.9,114.6l-1-2.5c-0.1-0.2,0-0.3,0.2-0.4l9.8-4.4c0.2-0.1,0.4,0,0.4,0.2l1.3,3.2c0.1,0.2,0,0.3-0.2,0.4
			l-10.1,3.6C183.2,114.8,183,114.8,182.9,114.6z"/>
	</g>
	<g id="_x3C_Radial_Repeat_x3E__00000052077991600145704870000010094318391175351482_">
		<path class="st0" d="M184.2,118.8l-0.8-2.5c0-0.2,0.1-0.3,0.2-0.4l10.1-3.6c0.2-0.1,0.4,0,0.4,0.2l1,3.3c0,0.2-0.1,0.3-0.3,0.4
			l-10.4,2.8C184.5,119,184.3,118.9,184.2,118.8z"/>
	</g>
	<g id="_x3C_Radial_Repeat_x3E__00000065051616086938913590000009637293371488290232_">
		<path class="st0" d="M185.2,123l-0.5-2.6c0-0.2,0.1-0.3,0.3-0.4l10.4-2.8c0.2-0.1,0.4,0.1,0.4,0.2l0.7,3.4c0,0.2-0.1,0.3-0.3,0.4
			l-10.6,2C185.4,123.3,185.3,123.2,185.2,123z"/>
	</g>
	<g id="_x3C_Radial_Repeat_x3E__00000107557219090210687760000016589348794917040019_">
		<path class="st0" d="M185.9,127.4l-0.3-2.6c0-0.2,0.1-0.3,0.3-0.3l10.6-1.9c0.2,0,0.4,0.1,0.4,0.3l0.5,3.4c0,0.2-0.1,0.3-0.3,0.3
			l-10.7,1.1C186,127.7,185.9,127.5,185.9,127.4z"/>
	</g>
	<g id="_x3C_Radial_Repeat_x3E__00000137843063379778662890000008844217134507414956_">
		<path class="st0" d="M186.1,131.7l-0.1-2.6c0-0.2,0.1-0.3,0.3-0.3l10.7-1.1c0.2,0,0.4,0.1,0.4,0.3l0.2,3.5c0,0.2-0.1,0.3-0.3,0.3
			l-10.7,0.3C186.3,132,186.1,131.9,186.1,131.7z"/>
	</g>
	<g id="_x3C_Radial_Repeat_x3E__00000159450530225521641310000014727055656062461329_">
		<path class="st0" d="M186.1,136.1l0.1-2.6c0-0.2,0.2-0.3,0.3-0.3l10.7-0.2c0.2,0,0.4,0.1,0.4,0.3l-0.1,3.5c0,0.2-0.2,0.3-0.4,0.3
			l-10.7-0.6C186.2,136.4,186.1,136.3,186.1,136.1z"/>
	</g>
	<g id="_x3C_Radial_Repeat_x3E__00000099650364135307949380000014655175305634553493_">
		<path class="st0" d="M185.6,140.5l0.3-2.6c0-0.2,0.2-0.3,0.4-0.3l10.7,0.6c0.2,0,0.3,0.2,0.3,0.3L197,142c0,0.2-0.2,0.3-0.4,0.3
			l-10.6-1.5C185.8,140.8,185.6,140.6,185.6,140.5z"/>
	</g>
	<g id="_x3C_Radial_Repeat_x3E__00000010311131595277651980000000760687513136587175_">
		<path class="st0" d="M184.9,144.8l0.5-2.6c0-0.2,0.2-0.3,0.4-0.2l10.6,1.5c0.2,0,0.3,0.2,0.3,0.4l-0.7,3.4c0,0.2-0.2,0.3-0.4,0.2
			l-10.5-2.3C185,145.1,184.8,144.9,184.9,144.8z"/>
	</g>
	<g id="_x3C_Radial_Repeat_x3E__00000029724578024731173010000008123681739854853301_">
		<path class="st0" d="M183.8,149l0.7-2.5c0-0.2,0.2-0.2,0.4-0.2l10.5,2.4c0.2,0,0.3,0.2,0.3,0.4l-0.9,3.3c0,0.2-0.2,0.3-0.4,0.2
			l-10.3-3.2C183.8,149.3,183.7,149.2,183.8,149z"/>
	</g>
	<g id="_x3C_Radial_Repeat_x3E__00000065071307261840486720000017206458021868897676_">
		<path class="st0" d="M182.3,153.1l0.9-2.5c0.1-0.2,0.2-0.2,0.4-0.2l10.3,3.2c0.2,0.1,0.3,0.2,0.2,0.4l-1.2,3.2
			c-0.1,0.2-0.3,0.2-0.4,0.2l-10-4C182.3,153.5,182.2,153.3,182.3,153.1z"/>
	</g>
	<g id="_x3C_Radial_Repeat_x3E__00000052800786363643153630000003005007749579023802_">
		<path class="st0" d="M180.5,157.1l1.1-2.4c0.1-0.1,0.3-0.2,0.4-0.1l10,4c0.2,0.1,0.3,0.3,0.2,0.4l-1.5,3.1
			c-0.1,0.2-0.3,0.2-0.4,0.1l-9.6-4.8C180.5,157.5,180.4,157.3,180.5,157.1z"/>
	</g>
	<g id="_x3C_Radial_Repeat_x3E__00000048472998971417144390000010407140814894548616_">
		<path class="st0" d="M178.4,161l1.3-2.3c0.1-0.1,0.3-0.2,0.4-0.1l9.6,4.8c0.2,0.1,0.3,0.3,0.2,0.4l-1.7,3
			c-0.1,0.1-0.3,0.2-0.5,0.1l-9.2-5.5C178.4,161.3,178.3,161.1,178.4,161z"/>
	</g>
	<g id="_x3C_Radial_Repeat_x3E__00000121276024294415468520000017642203494548696232_">
		<path class="st0" d="M176,164.6l1.5-2.2c0.1-0.1,0.3-0.2,0.4-0.1l9.2,5.6c0.2,0.1,0.2,0.3,0.1,0.5l-1.9,2.9
			c-0.1,0.1-0.3,0.2-0.5,0.1l-8.7-6.2C176,165,175.9,164.8,176,164.6z"/>
	</g>
	<g id="_x3C_Radial_Repeat_x3E__00000074443429899512295630000012938401994178470533_">
		<path class="st0" d="M173.3,168.1l1.7-2.1c0.1-0.1,0.3-0.1,0.4,0l8.7,6.3c0.2,0.1,0.2,0.3,0.1,0.5l-2.2,2.7
			c-0.1,0.1-0.3,0.1-0.5,0l-8.2-6.9C173.3,168.4,173.2,168.2,173.3,168.1z"/>
	</g>
	<g id="_x3C_Radial_Repeat_x3E__00000075143306713931596530000008617671463752188551_">
		<path class="st0" d="M170.4,171.3l1.8-1.9c0.1-0.1,0.3-0.1,0.4,0l8.2,7c0.2,0.1,0.2,0.3,0.1,0.5l-2.4,2.5c-0.1,0.1-0.3,0.1-0.5,0
			l-7.6-7.6C170.3,171.6,170.3,171.4,170.4,171.3z"/>
	</g>
	<g id="_x3C_Radial_Repeat_x3E__00000057852308096935982260000018370886118620247202_">
		<path class="st0" d="M167.2,174.3l2-1.8c0.1-0.1,0.3-0.1,0.4,0l7.6,7.6c0.1,0.1,0.1,0.4,0,0.5l-2.6,2.3c-0.1,0.1-0.3,0.1-0.5-0.1
			l-7-8.2C167.1,174.6,167.1,174.4,167.2,174.3z"/>
	</g>
	<g id="_x3C_Radial_Repeat_x3E__00000060722211209326969990000001302232631207311775_">
		<path class="st0" d="M163.7,177l2.1-1.6c0.1-0.1,0.3-0.1,0.4,0.1l7,8.2c0.1,0.2,0.1,0.4,0,0.5l-2.7,2.1c-0.1,0.1-0.3,0.1-0.5-0.1
			l-6.3-8.7C163.6,177.3,163.6,177.1,163.7,177z"/>
	</g>
	<g id="_x3C_Radial_Repeat_x3E__00000082362812059057275510000000423514088426720170_">
		<path class="st0" d="M160.1,179.4l2.2-1.4c0.1-0.1,0.3,0,0.4,0.1l6.3,8.7c0.1,0.2,0.1,0.4-0.1,0.5l-2.9,1.9
			c-0.1,0.1-0.3,0-0.4-0.1l-5.6-9.2C159.9,179.7,160,179.5,160.1,179.4z"/>
	</g>
	<g id="_x3C_Radial_Repeat_x3E__00000130641136850303127190000017027002117065146536_">
		<path class="st0" d="M156.3,181.6l2.3-1.2c0.1-0.1,0.3,0,0.4,0.1l5.6,9.2c0.1,0.2,0.1,0.4-0.1,0.5l-3,1.6c-0.2,0.1-0.3,0-0.4-0.2
			l-4.8-9.6C156.1,181.8,156.1,181.6,156.3,181.6z"/>
	</g>
	<g id="_x3C_Radial_Repeat_x3E__00000156587574623865105920000006443277723486224001_">
		<path class="st0" d="M152.3,183.4l2.4-1.1c0.1-0.1,0.3,0,0.4,0.2l4.8,9.6c0.1,0.2,0,0.4-0.1,0.5l-3.2,1.4c-0.2,0.1-0.3,0-0.4-0.2
			l-4.1-10C152.1,183.6,152.1,183.4,152.3,183.4z"/>
	</g>
	<g id="_x3C_Radial_Repeat_x3E__00000059287150299958137120000018385958308527977887_">
		<path class="st0" d="M148.2,184.9l2.5-0.9c0.2-0.1,0.3,0,0.4,0.2l4,10c0.1,0.2,0,0.4-0.2,0.4l-3.3,1.1c-0.2,0.1-0.3-0.1-0.4-0.2
			l-3.2-10.2C147.9,185.1,148,184.9,148.2,184.9z"/>
	</g>
	<g id="_x3C_Radial_Repeat_x3E__00000172435270096776948220000010574370979489344425_">
		<path class="st0" d="M144,186l2.6-0.7c0.2,0,0.3,0.1,0.4,0.2l3.2,10.3c0.1,0.2,0,0.4-0.2,0.4l-3.4,0.9c-0.2,0-0.3-0.1-0.4-0.3
			l-2.4-10.5C143.7,186.2,143.8,186,144,186z"/>
	</g>
	<g id="_x3C_Radial_Repeat_x3E__00000061463692505954975080000010266031160109058995_">
		<path class="st0" d="M139.7,186.8l2.6-0.4c0.2,0,0.3,0.1,0.4,0.3l2.4,10.5c0,0.2-0.1,0.4-0.2,0.4l-3.4,0.6c-0.2,0-0.3-0.1-0.4-0.3
			l-1.6-10.6C139.4,187,139.5,186.8,139.7,186.8z"/>
	</g>
	<g id="_x3C_Radial_Repeat_x3E__00000149366815275165201370000005012809715143754635_">
		<path class="st0" d="M135.3,187.3l2.6-0.2c0.2,0,0.3,0.1,0.3,0.3l1.5,10.6c0,0.2-0.1,0.4-0.3,0.4l-3.4,0.3c-0.2,0-0.3-0.1-0.3-0.3
			l-0.7-10.7C135,187.4,135.1,187.3,135.3,187.3z"/>
	</g>
</g>
<path class="st0" d="M131.8,166.4c-18.4,0-33.4-15-33.4-33.4c0-18.4,15-33.4,33.4-33.4s33.4,15,33.4,33.4
	C165.2,151.4,150.2,166.4,131.8,166.4z M131.8,101.7c-17.3,0-31.4,14.1-31.4,31.4s14.1,31.4,31.4,31.4c17.3,0,31.4-14.1,31.4-31.4
	S149.1,101.7,131.8,101.7z"/>
<g>
	<path class="st0" d="M132.1,139.5c-2.2,0-4.4-1.1-5.6-3.2c-1.8-3.1-0.8-7.1,2.3-9c1.5-0.9,3.3-1.1,4.9-0.7c1.7,0.4,3.1,1.5,4,3
		c0.9,1.5,1.1,3.3,0.7,4.9c-0.4,1.7-1.5,3.1-3,4C134.4,139.2,133.3,139.5,132.1,139.5z M132.1,128.4c-0.8,0-1.6,0.2-2.3,0.6
		c-2.1,1.3-2.9,4.1-1.6,6.2c1.3,2.1,4.1,2.9,6.2,1.6c1-0.6,1.8-1.6,2.1-2.8c0.3-1.2,0.1-2.4-0.5-3.4h0c-0.6-1-1.6-1.8-2.8-2.1
		C132.9,128.4,132.5,128.4,132.1,128.4z"/>
	
		<rect x="130.1" y="104.1" transform="matrix(0.8616 -0.5075 0.5075 0.8616 -28.5283 105.5529)" class="st0" width="98.5" height="2"/>
</g>
</svg>
