<svg xmlns="http://www.w3.org/2000/svg" xml:space="preserve" style="enable-background:new 0 0 32.2 32.1" viewBox="0 0 32.2 32.1"><path d="M31.4 11.1c-.2-.7-.5-1.4-.8-2C28 3.7 22.5 0 16.1 0S4.2 3.7 1.6 9.1c-.3.6-.6 1.3-.8 2C.3 12.7 0 14.3 0 16s.3 3.3.8 4.9c.2.7.5 1.4.8 2 2.6 5.4 8.1 9.2 14.5 9.2s11.9-3.8 14.5-9.2c.3-.6.6-1.3.8-2 .5-1.5.8-3.2.8-4.9 0-1.6-.3-3.3-.8-4.9zm-3.1-1.9H23c-.5-2.7-1.5-4.9-2.6-6.5 3.4 1.1 6.2 3.4 7.9 6.5zm-6.4 6.9c0 1.8-.2 3.4-.4 4.9H10.9c-.3-1.5-.4-3.2-.4-4.9 0-1.8.1-3.4.5-4.9h10.5c.3 1.5.4 3.1.4 4.9zM16.1 2C18 2 19.9 4.7 21 9.1h-9.8c1.1-4.4 3-7.1 4.9-7.1zm-4.3.7c-1.1 1.6-2 3.8-2.6 6.5H3.9c1.7-3.1 4.5-5.4 7.9-6.5zM2.1 16.1c0-1.7.3-3.4.9-4.9h5.9c-.3 1.5-.4 3.2-.4 4.9 0 1.7.1 3.3.4 4.9H3c-.6-1.6-.9-3.2-.9-4.9zm1.7 6.8h5.3c.6 2.7 1.5 4.9 2.7 6.5-3.4-1-6.2-3.4-8-6.5zm12.3 7.3c-1.8 0-3.8-2.8-4.9-7.2H21c-1.1 4.4-3 7.2-4.9 7.2zm4.3-.7c1.1-1.6 2.1-3.9 2.7-6.5h5.3c-1.7 3-4.6 5.4-8 6.5zm8.8-8.6h-5.8c.2-1.5.3-3.2.3-4.9s-.1-3.4-.4-4.9h5.9c.6 1.5.9 3.2.9 4.9 0 1.7-.3 3.3-.9 4.9z" style="fill: currentColor"/></svg>