<svg id="Layer_1" width="350" data-name="Layer 1" xmlns="http://www.w3.org/2000/svg" viewBox="0 0 1130.94 118.25"><defs><style>.cls-1{fill:#fff}</style></defs><path class="cls-1" d="M6096.81 4270.11h-21.91l-10.62-26.46h-57.47l-10.62 26.46h-22.08l47.2-117.81h28.48zm-40.45-46.18l-20.9-52.08-20.73 52.08zM6243.44 4270.11h-15.85l-69.61-80.9v80.9h-21.74V4152.3h15.85l69.6 80.73v-80.73h21.75zM6406.86 4211.12c0 32.53-26 59-58 59h-50.73V4152.3h50.73c32.04 0 58 26.29 58 58.82zm-21.58 0c0-20.9-16.68-37.92-37.07-37.92h-28.32v75.8h28.32c20.39 0 37.07-17 37.07-37.88zM6452.35 4270.11V4152.3h21.75v117.81zM6635.75 4270.11h-21.91l-10.62-26.46h-57.47l-10.62 26.46h-22.08l47.19-117.81h28.49zm-40.45-46.18l-20.9-52.08-20.73 52.08zM6782.52 4270.11h-15.84l-69.61-80.9v80.9h-21.74V4152.3h15.84l69.61 80.73v-80.73h21.74zM5934.54 4193.43a21.77 21.77 0 00-21.79 21.77v54.91h21.79zM6926.26 4152.3h-85.4c-10.09 0-18.27 9-18.35 20.05l-.41.18h40.81v98c7.39-.17 14.39.26 21.69-.32v-.12h.37v-97.58h27.32c9.89-.33 17.82-9.24 17.82-20.22z" transform="translate(-5799.17 -4152.3)"/><path d="M5934.54 4178.32h-.36a18.21 18.21 0 00-10 1.47c-4.35 2-8.38 5.49-11.82 8.88l-.17.17a70 70 0 00-7.34 8.52l-33.7 46.34h-12.85l-37-50.9v77.36h-22.11V4152.3h17.31l48.17 66.41 48.33-66.41h21.56z" transform="translate(-5799.17 -4152.3)" fill="#d80e0b"/></svg>