<svg version="1.1" id="Layer_1" xmlns="http://www.w3.org/2000/svg" x="0" y="0" viewBox="0 0 26.7 25.1" style="enable-background:new 0 0 26.7 25.1" xml:space="preserve">
  <path class="st0" d="m12.6 17.4-6.9-6.8 1.1-1.1 5.8 5.8L25.7 2.2l1 1.1z" style="fill:#fff"/>
  <path d="M1.5 12.5c0-6.1 4.9-11 11-11 2.4 0 4.7.8 6.5 2.1l1.1-1.1C18 1 15.4 0 12.5 0 5.6 0 0 5.6 0 12.5c0 2.8 1 5.5 2.6 7.6l1-1.1c-1.3-1.8-2.1-4-2.1-6.5z" style="fill:#d5141b"/>
  <path class="st0" d="m24.9 10.5-1.4 1.4v.7c0 6.1-4.9 11-11 11-2.4 0-4.6-.8-6.4-2L5 22.7c2.1 1.5 4.6 2.5 7.4 2.5 6.9 0 12.5-5.6 12.5-12.5.2-.9.1-1.6 0-2.2z" style="fill:#fff"/>
</svg>
