<svg xmlns="http://www.w3.org/2000/svg" xml:space="preserve" id="Layer_1" x="0" y="0" style="enable-background:new 0 0 958.6 159.4" version="1.1" viewBox="0 0 958.6 159.4"><style>.st0{fill:#fff}</style><path d="M253 100.1h-18.6l-9-22.5h-48.9l-9 22.5h-18.8L188.8 0H213l40 100.1zm-34.4-39.2-17.8-44.3-17.6 44.3h35.4zM377.7 100.1h-13.5L305 31.4v68.8h-18.5V0H300l59.2 68.6V0h18.5v100.1zM515.8 50c0 27.7-22.1 50.1-49.3 50.1h-43.1V0h43.1c27.2 0 49.3 22.4 49.3 50zm-18.3 0c0-17.8-14.2-32.2-31.5-32.2h-24.1v64.5H466c17.3-.1 31.5-14.5 31.5-32.3zM554.5 100.1V0H573v100.1h-18.5zM710.4 100.1h-18.6l-9-22.5h-48.9l-9 22.5h-18.8L646.2 0h24.2l40 100.1zM676 60.9l-17.8-44.3-17.6 44.3H676zM835.1 100.1h-13.5l-59.2-68.8v68.8H744V0h13.5l59.2 68.6V0h18.5v100.1zM115.1 36.5c-10.2 0-18.5 8.3-18.5 18.5v45.1h18.5V36.5zM955.3 0h-72.6c-8.6 0-15.5 7.6-15.6 17l-.3.1h34.7v83.3c6.3-.1 12.2.2 18.4-.3v-.1h.3V17H943.4c8.4-.3 15.2-7.9 15.2-17.2h-3.3z" class="st0"/><path d="M115.1 22.1h-.3c-2.9-.4-5.9 0-8.5 1.2-3.7 1.7-7.1 4.7-10 7.5l-.2.2c-2.3 2.2-4.4 4.7-6.2 7.2L61.2 77.7H50.3L18.8 34.4v65.8H0V0h14.7l40.9 56.4L96.7 0H115v22.1z" style="fill:#e10600"/><g><path d="M7.5 159c-.1-.1-.1-.1-.1-.2v-7.5l-6-12c0-.1-.1-.1-.1-.2 0-.2.1-.2.3-.2h3.6c.2 0 .3.1.4.3l3.6 7.7c.1.1.1.1.2 0l3.6-7.7c.1-.2.2-.3.4-.3h3.7c.1 0 .2 0 .3.1v.3l-6 12v7.5c0 .1 0 .2-.1.2-.1.1-.1.1-.2.1H7.7s-.1-.1-.2-.1zM27 158.5c-1.1-.6-2-1.5-2.7-2.6-.6-1.1-1-2.4-1-3.8v-6.2c0-1.4.3-2.7 1-3.8.6-1.1 1.5-2 2.7-2.6 1.1-.6 2.5-.9 4-.9s2.9.3 4 .9c1.1.6 2 1.5 2.7 2.6.6 1.1 1 2.4 1 3.8v6.2c0 1.4-.3 2.7-1 3.9-.6 1.1-1.5 2-2.7 2.6-1.1.6-2.5.9-4 .9-1.5-.1-2.9-.4-4-1zm6.5-3.6c.7-.7 1-1.6 1-2.7v-6.4c0-1.1-.3-2-1-2.7-.6-.7-1.5-1-2.6-1s-1.9.3-2.6 1c-.6.7-1 1.6-1 2.7v6.4c0 1.1.3 2 1 2.7.6.7 1.5 1 2.6 1s2-.3 2.6-1zM49.8 158.5c-1.1-.6-2-1.4-2.6-2.4-.6-1.1-.9-2.3-.9-3.6v-13.2c0-.1 0-.2.1-.2.1-.1.1-.1.2-.1H50c.1 0 .2 0 .2.1.1.1.1.2.1.2v13.2c0 1 .3 1.8.9 2.5.6.6 1.5.9 2.5.9s1.8-.3 2.5-.9c.6-.6.9-1.5.9-2.5v-13.2c0-.1 0-.2.1-.2.1-.1.1-.1.2-.1h3.4c.1 0 .2 0 .2.1.1.1.1.2.1.2v13.2c0 1.4-.3 2.6-.9 3.6-.6 1.1-1.5 1.9-2.6 2.4-1.1.6-2.4.9-3.9.9-1.5-.1-2.8-.3-3.9-.9zM79.9 158.8l-3.6-8c0-.1-.1-.1-.2-.1h-2.7c-.1 0-.1 0-.1.1v7.9c0 .1 0 .2-.1.2-.1.1-.1.1-.2.1h-3.4c-.1 0-.2 0-.2-.1-.1-.1-.1-.1-.1-.2v-19.6c0-.1 0-.2.1-.2.1-.1.1-.1.2-.1h8.3c1.2 0 2.3.3 3.3.8.9.5 1.7 1.2 2.2 2.1.5.9.8 2 .8 3.2 0 1.3-.3 2.4-1 3.4-.7.9-1.6 1.6-2.8 2-.1 0-.1.1-.1.2l3.9 8.2c0 .1.1.1.1.2 0 .2-.1.2-.3.2h-3.6c-.3 0-.4-.1-.5-.3zm-6.6-16.3v5c0 .1 0 .1.1.1h3.8c.8 0 1.5-.2 2-.7.5-.5.8-1.1.8-1.9 0-.8-.3-1.4-.8-1.9s-1.2-.7-2-.7h-3.8c-.1-.1-.1 0-.1.1zM105.2 158.5c-1.1-.6-2-1.4-2.6-2.5-.6-1.1-.9-2.3-.9-3.7v-6.7c0-1.4.3-2.6.9-3.7.6-1.1 1.5-1.9 2.6-2.5 1.1-.6 2.5-.9 4-.9s2.8.3 3.9.8 2 1.3 2.6 2.3.9 2.2.9 3.5c0 .2-.1.3-.3.3l-3.4.2h-.1c-.2 0-.3-.1-.3-.3 0-1-.3-1.8-.9-2.5s-1.5-.9-2.5-.9-1.9.3-2.5.9c-.6.6-.9 1.4-.9 2.5v7c0 1 .3 1.8.9 2.4.6.6 1.5.9 2.5.9s1.8-.3 2.5-.9c.6-.6.9-1.4.9-2.4 0-.2.1-.3.3-.3l3.4.1c.1 0 .2 0 .2.1.1.1.1.1.1.2 0 1.3-.3 2.5-.9 3.5-.6 1-1.5 1.8-2.6 2.4-1.1.6-2.4.8-3.9.8-1.4.2-2.8-.1-3.9-.6zM128.7 159c-.1-.1-.1-.1-.1-.2v-7.5l-6-12c0-.1-.1-.1-.1-.2 0-.2.1-.2.3-.2h3.6c.2 0 .3.1.4.3l3.6 7.7c.1.1.1.1.2 0l3.6-7.7c.1-.2.2-.3.4-.3h3.7c.1 0 .2 0 .3.1v.3l-6 12v7.5c0 .1 0 .2-.1.2-.1.1-.1.1-.2.1H129c-.1 0-.2-.1-.3-.1zM157.8 148.7c1.8.9 2.8 2.5 2.8 4.7 0 1.9-.6 3.3-1.9 4.2-1.3 1-2.9 1.4-5 1.4h-7.5c-.1 0-.2 0-.2-.1-.1-.1-.1-.1-.1-.2v-19.6c0-.1 0-.2.1-.2.1-.1.1-.1.2-.1h7.3c4.6 0 6.9 1.9 6.9 5.6 0 1.9-.8 3.3-2.5 4.1-.2.1-.2.2-.1.2zm-7.9-6.2v4.5c0 .1 0 .1.1.1h3.4c.9 0 1.6-.2 2.1-.6s.8-1 .8-1.7c0-.8-.3-1.3-.8-1.8-.5-.4-1.2-.7-2.1-.7H150s-.1.1-.1.2zm5.9 12.4c.5-.5.8-1.1.8-1.9 0-.8-.3-1.4-.8-1.9s-1.2-.7-2.1-.7h-3.6c-.1 0-.1 0-.1.1v4.8c0 .1 0 .1.1.1h3.6c.9.2 1.6-.1 2.1-.5zM182.4 142.2c-.1.1-.1.1-.2.1h-9.5c-.1 0-.1 0-.1.1v4.5c0 .1 0 .1.1.1h6.2c.1 0 .2 0 .2.1.1.1.1.1.1.2v2.8c0 .1 0 .2-.1.2-.1.1-.1.1-.2.1h-6.2c-.1 0-.1 0-.1.1v4.7c0 .1 0 .1.1.1h9.5c.1 0 .2 0 .2.1.1.1.1.2.1.2v2.8c0 .1 0 .2-.1.2-.1.1-.1.1-.2.1h-13.4c-.1 0-.2 0-.2-.1-.1-.1-.1-.1-.1-.2v-19.6c0-.1 0-.2.1-.2.1-.1.1-.1.2-.1h13.4c.1 0 .2 0 .2.1.1.1.1.2.1.2v2.8c0 .5-.1.6-.1.6zM200.7 158.8l-3.6-8c0-.1-.1-.1-.2-.1h-2.7c-.1 0-.1 0-.1.1v7.9c0 .1 0 .2-.1.2-.1.1-.1.1-.2.1h-3.4c-.1 0-.2 0-.2-.1-.1-.1-.1-.1-.1-.2v-19.6c0-.1 0-.2.1-.2.1-.1.1-.1.2-.1h8.3c1.2 0 2.3.3 3.3.8.9.5 1.7 1.2 2.2 2.1.5.9.8 2 .8 3.2 0 1.3-.3 2.4-1 3.4-.7.9-1.6 1.6-2.8 2-.1 0-.1.1-.1.2l3.9 8.2c0 .1.1.1.1.2 0 .2-.1.2-.3.2h-3.6c-.3 0-.5-.1-.5-.3zm-6.7-16.3v5c0 .1 0 .1.1.1h3.8c.8 0 1.5-.2 2-.7.5-.5.8-1.1.8-1.9 0-.8-.3-1.4-.8-1.9s-1.2-.7-2-.7h-3.8c0-.1-.1 0-.1.1zM217.3 158.6c-1.2-.5-2.1-1.2-2.7-2.1-.6-.9-.9-2-.9-3.2v-.6c0-.1 0-.2.1-.2.1-.1.1-.1.2-.1h3.3c.1 0 .2 0 .2.1.1.1.1.2.1.2v.4c0 .8.4 1.4 1.1 2 .7.5 1.7.8 2.9.8 1 0 1.8-.2 2.3-.7.5-.4.8-1 .8-1.6 0-.5-.2-.9-.5-1.2-.3-.3-.7-.6-1.3-.8-.5-.2-1.4-.6-2.5-1-1.3-.4-2.4-.9-3.3-1.4s-1.7-1.1-2.3-1.9c-.6-.8-.9-1.8-.9-3s.3-2.2.9-3c.6-.9 1.4-1.5 2.5-2s2.3-.7 3.7-.7c1.5 0 2.8.3 3.9.8s2 1.2 2.7 2.2c.6.9 1 2 1 3.3v.4c0 .1 0 .2-.1.2-.1.1-.1.1-.2.1H225c-.1 0-.2 0-.2-.1-.1-.1-.1-.1-.1-.2v-.3c0-.8-.3-1.5-1-2.1s-1.6-.9-2.7-.9c-.9 0-1.6.2-2.1.6-.5.4-.8.9-.8 1.6 0 .5.1.9.4 1.2.3.3.7.6 1.3.9.6.3 1.5.6 2.7 1.1 1.4.5 2.4.9 3.2 1.3.8.4 1.5 1 2.1 1.7.6.8.9 1.8.9 3 0 1.8-.7 3.2-2 4.3-1.3 1.1-3.1 1.6-5.4 1.6-1.5 0-2.9-.2-4-.7zM250.2 142.2c-.1.1-.1.1-.2.1h-9.5c-.1 0-.1 0-.1.1v4.5c0 .1 0 .1.1.1h6.2c.1 0 .2 0 .2.1.1.1.1.1.1.2v2.8c0 .1 0 .2-.1.2-.1.1-.1.1-.2.1h-6.2c-.1 0-.1 0-.1.1v4.7c0 .1 0 .1.1.1h9.5c.1 0 .2 0 .2.1.1.1.1.2.1.2v2.8c0 .1 0 .2-.1.2-.1.1-.1.1-.2.1h-13.4c-.1 0-.2 0-.2-.1-.1-.1-.1-.1-.1-.2v-19.6c0-.1 0-.2.1-.2.1-.1.1-.1.2-.1H250c.1 0 .2 0 .2.1.1.1.1.2.1.2v2.8c0 .5 0 .6-.1.6zM260.9 158.5c-1.1-.6-2-1.4-2.6-2.5-.6-1.1-.9-2.3-.9-3.7v-6.7c0-1.4.3-2.6.9-3.7.6-1.1 1.5-1.9 2.6-2.5 1.1-.6 2.5-.9 4-.9s2.8.3 3.9.8 2 1.3 2.6 2.3.9 2.2.9 3.5c0 .2-.1.3-.3.3l-3.4.2h-.1c-.2 0-.3-.1-.3-.3 0-1-.3-1.8-.9-2.5s-1.5-.9-2.5-.9-1.9.3-2.5.9c-.6.6-.9 1.4-.9 2.5v7c0 1 .3 1.8.9 2.4.6.6 1.5.9 2.5.9s1.8-.3 2.5-.9c.6-.6.9-1.4.9-2.4 0-.2.1-.3.3-.3l3.4.1c.1 0 .2 0 .2.1.1.1.1.1.1.2 0 1.3-.3 2.5-.9 3.5-.6 1-1.5 1.8-2.6 2.4-1.1.6-2.4.8-3.9.8-1.4.2-2.7-.1-3.9-.6zM283.4 158.5c-1.1-.6-2-1.4-2.6-2.4-.6-1.1-.9-2.3-.9-3.6v-13.2c0-.1 0-.2.1-.2.1-.1.1-.1.2-.1h3.4c.1 0 .2 0 .2.1.1.1.1.2.1.2v13.2c0 1 .3 1.8.9 2.5.6.6 1.5.9 2.5.9s1.8-.3 2.5-.9c.6-.6.9-1.5.9-2.5v-13.2c0-.1 0-.2.1-.2.1-.1.1-.1.2-.1h3.4c.1 0 .2 0 .2.1.1.1.1.2.1.2v13.2c0 1.4-.3 2.6-.9 3.6-.6 1.1-1.5 1.9-2.6 2.4-1.1.6-2.4.9-3.9.9-1.4-.1-2.7-.3-3.9-.9zM313.6 158.8l-3.6-8c0-.1-.1-.1-.2-.1h-2.7c-.1 0-.1 0-.1.1v7.9c0 .1 0 .2-.1.2-.1.1-.1.1-.2.1h-3.4c-.1 0-.2 0-.2-.1-.1-.1-.1-.1-.1-.2v-19.6c0-.1 0-.2.1-.2.1-.1.1-.1.2-.1h8.3c1.2 0 2.3.3 3.3.8.9.5 1.7 1.2 2.2 2.1.5.9.8 2 .8 3.2 0 1.3-.3 2.4-1 3.4-.7.9-1.6 1.6-2.8 2-.1 0-.1.1-.1.2l3.9 8.2c0 .1.1.1.1.2 0 .2-.1.2-.3.2H314c-.2 0-.4-.1-.4-.3zm-6.7-16.3v5c0 .1 0 .1.1.1h3.8c.8 0 1.5-.2 2-.7.5-.5.8-1.1.8-1.9 0-.8-.3-1.4-.8-1.9s-1.2-.7-2-.7H307c0-.1-.1 0-.1.1zM325.4 159c-.1-.1-.1-.1-.1-.2v-19.6c0-.1 0-.2.1-.2.1-.1.1-.1.2-.1h3.4c.1 0 .2 0 .2.1.1.1.1.2.1.2v19.6c0 .1 0 .2-.1.2-.1.1-.1.1-.2.1h-3.4c-.1 0-.2 0-.2-.1zM351.7 138.9c.1.1.1.2.1.2v2.8c0 .1 0 .2-.1.2-.1.1-.1.1-.2.1h-5.2c-.1 0-.1 0-.1.1v16.2c0 .1 0 .2-.1.2-.1.1-.1.1-.2.1h-3.4c-.1 0-.2 0-.2-.1-.1-.1-.1-.1-.1-.2v-16.2c0-.1 0-.1-.1-.1h-5c-.1 0-.2 0-.2-.1-.1-.1-.1-.1-.1-.2v-2.8c0-.1 0-.2.1-.2.1-.1.1-.1.2-.1h14.6c-.1 0 0 .1 0 .1zM364.3 159c-.1-.1-.1-.1-.1-.2v-7.5l-6-12c0-.1-.1-.1-.1-.2 0-.2.1-.2.3-.2h3.6c.2 0 .3.1.4.3l3.6 7.7c.1.1.1.1.2 0l3.6-7.7c.1-.2.2-.3.4-.3h3.7c.1 0 .2 0 .3.1v.3l-6 12v7.5c0 .1 0 .2-.1.2-.1.1-.1.1-.2.1h-3.4s-.1-.1-.2-.1zM404.5 158.8l-.9-2.8c0-.1-.1-.1-.1-.1h-7.1c-.1 0-.1 0-.1.1l-.8 2.8c-.1.2-.2.3-.4.3h-3.7c-.1 0-.2 0-.3-.1-.1-.1-.1-.2 0-.3l6.3-19.6c.1-.2.2-.3.4-.3h4.5c.2 0 .3.1.4.3l6.3 19.6v.1c0 .2-.1.3-.3.3H405c-.3 0-.4-.1-.5-.3zm-7.1-6.1h5.1c.1 0 .2-.1.1-.2l-2.6-8.6c0-.1 0-.1-.1-.1 0 0-.1 0-.1.1l-2.5 8.6c-.1.2 0 .2.1.2zM416.2 159c-.1-.1-.1-.1-.1-.2v-19.6c0-.1 0-.2.1-.2.1-.1.1-.1.2-.1h7.2c1.4 0 2.7.3 3.8.8 1.1.5 1.9 1.2 2.5 2.2.6.9.9 2 .9 3.2v8c0 1.2-.3 2.3-.9 3.2-.6.9-1.4 1.6-2.5 2.2-1.1.5-2.4.8-3.8.8h-7.2c-.1-.2-.2-.2-.2-.3zm4.1-3.4h3.5c.9 0 1.6-.3 2.2-.9.6-.6.8-1.4.9-2.4v-6.7c0-1-.3-1.8-.8-2.4-.6-.6-1.3-.9-2.2-.9h-3.5c-.1 0-.1 0-.1.1v13c-.2.2-.1.2 0 .2zM442.8 158.8l-6-19.6v-.1c0-.2.1-.3.3-.3h3.6c.2 0 .3.1.4.3l3.9 14.1c0 .1 0 .1.1.1 0 0 .1 0 .1-.1l3.8-14.1c.1-.2.2-.3.4-.3h3.6c.1 0 .2 0 .3.1.1.1.1.2 0 .3l-6.1 19.6c-.1.2-.2.3-.4.3h-3.6c-.2 0-.3-.1-.4-.3zM470.1 158.8l-.9-2.8c0-.1-.1-.1-.1-.1H462c-.1 0-.1 0-.1.1l-.8 2.8c-.1.2-.2.3-.4.3H457c-.1 0-.2 0-.3-.1-.1-.1-.1-.2 0-.3l6.3-19.6c.1-.2.2-.3.4-.3h4.5c.2 0 .3.1.4.3l6.3 19.6v.1c0 .2-.1.3-.3.3h-3.7c-.4 0-.5-.1-.5-.3zm-7.2-6.1h5.1c.1 0 .2-.1.1-.2l-2.6-8.6c0-.1 0-.1-.1-.1 0 0-.1 0-.1.1l-2.5 8.6c0 .2 0 .2.1.2zM493.3 138.9c.1-.1.1-.1.2-.1h3.4c.1 0 .2 0 .2.1.1.1.1.2.1.2v19.6c0 .1 0 .2-.1.2-.1.1-.1.1-.2.1h-3.3c-.2 0-.3-.1-.4-.2l-7.5-12.4c0-.1-.1-.1-.1-.1l-.1.1.1 12.2c0 .1 0 .2-.1.2-.1.1-.1.1-.2.1H482c-.1 0-.2 0-.2-.1-.1-.1-.1-.1-.1-.2V139c0-.1 0-.2.1-.2.1-.1.1-.1.2-.1h3.3c.2 0 .3.1.4.2l7.5 12.3c0 .1.1.1.1.1l.1-.1V139c-.2.1-.1 0-.1-.1zM519.7 138.9c.1.1.1.2.1.2v2.8c0 .1 0 .2-.1.2-.1.1-.1.1-.2.1h-5.2c-.1 0-.1 0-.1.1v16.2c0 .1 0 .2-.1.2-.1.1-.1.1-.2.1h-3.4c-.1 0-.2 0-.2-.1-.1-.1-.1-.1-.1-.2v-16.2c0-.1 0-.1-.1-.1h-5c-.1 0-.2 0-.2-.1-.1-.1-.1-.1-.1-.2v-2.8c0-.1 0-.2.1-.2.1-.1.1-.1.2-.1h14.6c-.1 0 0 .1 0 .1zM537.7 158.8l-.9-2.8c0-.1-.1-.1-.1-.1h-7.1c-.1 0-.1 0-.1.1l-.8 2.8c-.1.2-.2.3-.4.3h-3.7c-.1 0-.2 0-.3-.1-.1-.1-.1-.2 0-.3l6.3-19.6c.1-.2.2-.3.4-.3h4.5c.2 0 .3.1.4.3l6.3 19.6v.1c0 .2-.1.3-.3.3h-3.7c-.3 0-.4-.1-.5-.3zm-7.1-6.1h5.1c.1 0 .2-.1.1-.2l-2.6-8.6c0-.1 0-.1-.1-.1 0 0-.1 0-.1.1l-2.5 8.6c0 .2 0 .2.1.2zM551.9 158.4c-1.1-.6-2-1.4-2.6-2.5-.6-1.1-.9-2.3-.9-3.7v-6.5c0-1.4.3-2.7.9-3.7.6-1.1 1.5-1.9 2.6-2.5 1.1-.6 2.5-.9 3.9-.9 1.5 0 2.8.3 3.9.9s2 1.4 2.6 2.4c.6 1 .9 2.1.9 3.3v.2c0 .1 0 .2-.1.2-.1.1-.1.1-.2.1h-3.4c-.1 0-.2 0-.2-.1-.1-.1-.1-.1-.1-.2v-.1c0-.9-.3-1.6-.9-2.2-.6-.6-1.4-.9-2.5-.9-1 0-1.9.3-2.5 1-.6.6-.9 1.5-.9 2.5v6.7c0 1 .3 1.9 1 2.5.7.6 1.5 1 2.6 1 1 0 1.8-.3 2.4-.8.6-.5.9-1.3.9-2.2v-1.3c0-.1 0-.1-.1-.1H556c-.1 0-.2 0-.2-.1-.1-.1-.1-.1-.1-.2v-2.7c0-.1 0-.2.1-.2.1-.1.1-.1.2-.1h7.1c.1 0 .2 0 .2.1.1.1.1.2.1.2v3.8c0 1.5-.3 2.7-.9 3.8-.6 1.1-1.5 1.9-2.6 2.5-1.1.6-2.4.9-3.9.9s-3-.5-4.1-1.1zM585 142.2c-.1.1-.1.1-.2.1h-9.5c-.1 0-.1 0-.1.1v4.5c0 .1 0 .1.1.1h6.2c.1 0 .2 0 .2.1.1.1.1.1.1.2v2.8c0 .1 0 .2-.1.2-.1.1-.1.1-.2.1h-6.2c-.1 0-.1 0-.1.1v4.7c0 .1 0 .1.1.1h9.5c.1 0 .2 0 .2.1.1.1.1.2.1.2v2.8c0 .1 0 .2-.1.2-.1.1-.1.1-.2.1h-13.4c-.1 0-.2 0-.2-.1-.1-.1-.1-.1-.1-.2v-19.6c0-.1 0-.2.1-.2.1-.1.1-.1.2-.1h13.4c.1 0 .2 0 .2.1.1.1.1.2.1.2v2.8c0 .5 0 .6-.1.6z" class="st0"/></g></svg>