<svg id="Layer_1" data-name="Layer 1" xmlns="http://www.w3.org/2000/svg"  viewBox="20 15 20 20" width="50px"><path d="M29.87,30.25H28.75a.38.38,0,0,1-.38-.36,8.62,8.62,0,0,0-8.26-8.26.38.38,0,0,1-.36-.38V20.13a.37.37,0,0,1,.39-.38A10.51,10.51,0,0,1,30.25,29.86.37.37,0,0,1,29.87,30.25Zm-3.38,0H25.37A.37.37,0,0,1,25,29.9,5.24,5.24,0,0,0,20.1,25a.37.37,0,0,1-.35-.38V23.51a.38.38,0,0,1,.39-.38,7.13,7.13,0,0,1,6.73,6.73A.38.38,0,0,1,26.49,30.25Zm-5.24,0a1.5,1.5,0,1,1,1.5-1.5A1.5,1.5,0,0,1,21.25,30.25Z"/></svg>