<svg id="Layer_1" data-name="Layer 1" xmlns="http://www.w3.org/2000/svg"  viewBox="20 15 20 20" width="50px"><path d="M29.77,22.88A7,7,0,0,1,19,28.77a5.83,5.83,0,0,0,.59,0,5,5,0,0,0,3.06-1.05A2.46,2.46,0,0,1,20.35,26a2.32,2.32,0,0,0,.46,0,2.82,2.82,0,0,0,.65-.08,2.46,2.46,0,0,1-2-2.42v0a2.43,2.43,0,0,0,1.11.32,2.49,2.49,0,0,1-1.1-2.05,2.35,2.35,0,0,1,.34-1.24,7,7,0,0,0,5.07,2.57,2.6,2.6,0,0,1-.06-.56A2.46,2.46,0,0,1,29.1,20.9a4.81,4.81,0,0,0,1.57-.59,2.53,2.53,0,0,1-1.09,1.36A5.14,5.14,0,0,0,31,21.28a5.16,5.16,0,0,1-1.23,1.28Z"/></svg>